<svg width="1440" height="800" viewBox="0 0 1440 800" fill="none" xmlns="http://www.w3.org/2000/svg">
<rect width="1440" height="800" fill="#EAEDF1"/>
<mask id="path-1-inside-1_1547_2255" fill="white">
<path d="M0 0H720V800H0V0Z"/>
</mask>
<path d="M0 0H720V800H0V0Z" fill="white"/>
<path d="M101.946 419.084C106.783 424.637 115.205 425.217 120.758 420.38C126.31 415.544 126.891 407.122 122.054 401.569C117.217 396.016 108.795 395.436 103.242 400.272C97.6898 405.109 97.1093 413.531 101.946 419.084ZM353.17 200.256C358.006 205.808 366.428 206.389 371.981 201.552C377.534 196.716 378.114 188.293 373.278 182.741C368.441 177.188 360.019 176.608 354.466 181.444C348.913 186.281 348.333 194.703 353.17 200.256ZM113.642 412.212L364.866 193.383L361.582 189.613L110.358 408.441L113.642 412.212Z" fill="#287FFF"/>
<path d="M105.359 471.375C109.158 477.684 117.352 479.718 123.66 475.919C129.968 472.12 132.002 463.926 128.203 457.618C124.404 451.31 116.211 449.276 109.903 453.075C103.594 456.874 101.56 465.067 105.359 471.375ZM390.765 299.496C394.564 305.804 402.758 307.839 409.066 304.04C415.374 300.241 417.408 292.047 413.609 285.739C409.81 279.431 401.617 277.397 395.309 281.196C389 284.995 386.966 293.188 390.765 299.496ZM118.071 466.638L403.477 294.759L400.898 290.476L115.492 462.355L118.071 466.638Z" fill="#287FFF"/>
<path d="M111.889 375.354C117.616 379.982 126.011 379.092 130.64 373.364C135.268 367.637 134.377 359.242 128.65 354.613C122.923 349.985 114.528 350.876 109.899 356.603C105.271 362.33 106.162 370.726 111.889 375.354ZM321.297 116.226C327.024 120.854 335.419 119.963 340.048 114.236C344.676 108.509 343.785 100.114 338.058 95.4851C332.33 90.8566 323.935 91.7475 319.307 97.4749C314.679 103.202 315.569 111.597 321.297 116.226ZM122.214 366.555L331.622 107.427L327.733 104.284L118.325 363.412L122.214 366.555Z" fill="#287FFF"/>
<path d="M148.286 372.223C154.73 375.786 162.843 373.451 166.406 367.007C169.97 360.563 167.635 352.45 161.191 348.887C154.747 345.323 146.634 347.658 143.07 354.102C139.507 360.546 141.842 368.659 148.286 372.223ZM309.515 80.6681C315.959 84.2317 324.072 81.8966 327.636 75.4525C331.199 69.0084 328.864 60.8955 322.42 57.332C315.976 53.7684 307.863 56.1035 304.299 62.5476C300.736 68.9917 303.071 77.1045 309.515 80.6681ZM156.926 361.765L318.155 70.2099L313.78 67.7902L152.551 359.345L156.926 361.765Z" fill="#287FFF"/>
<path d="M206.711 404.549C213.676 406.939 221.26 403.231 223.65 396.266C226.041 389.301 222.332 381.717 215.367 379.326C208.402 376.936 200.818 380.644 198.428 387.609C196.037 394.574 199.746 402.158 206.711 404.549ZM314.863 89.4263C321.828 91.8167 329.412 88.1083 331.802 81.1433C334.193 74.1783 330.484 66.5942 323.519 64.2038C316.554 61.8134 308.97 65.5218 306.58 72.4868C304.189 79.4518 307.898 87.0359 314.863 89.4263ZM213.404 392.749L321.556 77.6266L316.826 76.0035L208.674 391.126L213.404 392.749Z" fill="#287FFF"/>
<path d="M282.998 465.841C290.272 466.986 297.097 462.017 298.242 454.742C299.386 447.468 294.417 440.643 287.143 439.498C279.869 438.354 273.044 443.323 271.899 450.597C270.754 457.871 275.723 464.696 282.998 465.841ZM334.786 136.725C342.06 137.87 348.885 132.901 350.03 125.627C351.175 118.352 346.206 111.528 338.931 110.383C331.657 109.238 324.832 114.207 323.687 121.482C322.543 128.756 327.512 135.581 334.786 136.725ZM287.54 453.058L339.328 123.943L334.389 123.166L282.601 452.281L287.54 453.058Z" fill="#287FFF"/>
<path d="M372.871 547.25C380.234 547.114 386.092 541.036 385.956 533.673C385.82 526.311 379.741 520.452 372.379 520.588C365.016 520.724 359.158 526.803 359.294 534.165C359.43 541.528 365.509 547.386 372.871 547.25ZM366.722 214.142C374.085 214.006 379.943 207.927 379.807 200.565C379.671 193.202 373.593 187.344 366.23 187.48C358.868 187.616 353.009 193.694 353.145 201.057C353.281 208.419 359.36 214.278 366.722 214.142ZM375.125 533.873L368.976 200.765L363.977 200.857L370.125 533.965L375.125 533.873Z" fill="#287FFF"/>
<path d="M471.628 640.909C478.855 639.497 483.568 632.493 482.156 625.266C480.744 618.039 473.74 613.325 466.513 614.738C459.286 616.15 454.572 623.154 455.985 630.381C457.397 637.608 464.4 642.322 471.628 640.909ZM407.729 313.929C414.956 312.517 419.669 305.513 418.257 298.286C416.845 291.059 409.841 286.345 402.614 287.758C395.387 289.17 390.673 296.174 392.085 303.401C393.498 310.628 400.501 315.342 407.729 313.929ZM471.524 627.344L407.625 300.364L402.718 301.323L466.617 628.303L471.524 627.344Z" fill="#287FFF"/>
<path d="M572.791 736.432C579.663 733.786 583.089 726.071 580.443 719.199C577.797 712.326 570.081 708.9 563.209 711.546C556.337 714.192 552.911 721.908 555.557 728.78C558.203 735.652 565.919 739.078 572.791 736.432ZM453.914 427.674C460.786 425.028 464.212 417.313 461.566 410.441C458.92 403.569 451.205 400.143 444.333 402.788C437.461 405.434 434.035 413.15 436.68 420.022C439.326 426.894 447.042 430.32 453.914 427.674ZM570.333 723.091L451.456 414.333L446.79 416.13L565.667 724.888L570.333 723.091Z" fill="#287FFF"/>
<rect x="20" y="653" width="127" height="127" rx="63.5" fill="#287FFF"/>
<g clip-path="url(#clip0_1547_2255)">
<path d="M45.3242 708.232C45.3242 708.232 46.9739 710.791 50.9207 710.174C54.8675 709.558 66.3283 705.795 66.3283 705.795L88.7393 711.297C88.7393 711.297 78.375 715.175 74.3253 720.239C70.2757 725.304 92.3551 723.269 103.51 713.017L97.7802 726.45L103.51 740.839" stroke="white" stroke-width="3.39188" stroke-linecap="round" stroke-linejoin="round"/>
<path d="M80.0806 702.129C80.0806 702.129 82.2664 704.389 83.4021 704.686C84.5379 704.983 88.803 703.402 88.803 703.402L93.3235 709.336C93.3235 709.336 97.7802 706.533 99.4356 705.795C101.091 705.058 101.613 700.163 102.664 699.873C103.714 699.582 109.622 704.039 109.622 704.039L109.113 709.336L107.141 711.03L112.933 717.409L118.495 716.941" stroke="white" stroke-width="3.39188" stroke-linecap="round" stroke-linejoin="round"/>
<path d="M112.543 699.809L121.968 695.217" stroke="white" stroke-width="3.39188" stroke-linecap="round" stroke-linejoin="round"/>
<path d="M112.205 685.412L107.737 696.925" stroke="white" stroke-width="3.39188" stroke-linecap="round" stroke-linejoin="round"/>
<path d="M93.0663 724.533C89.765 726.697 82.6248 727.469 78.932 728.615C76.3353 729.388 73.7001 730.025 71.0372 730.525L53.5923 747.588" stroke="white" stroke-width="3.39188" stroke-linecap="round" stroke-linejoin="round"/>
</g>
<path d="M715 0V800H725V0H715Z" fill="#263238" mask="url(#path-1-inside-1_1547_2255)"/>
<path d="M720 417C728.837 417 736 409.389 736 400C736 390.611 728.837 383 720 383" stroke="#263238" stroke-width="5"/>
<path d="M1015 539C1006.16 539 999 546.611 999 556C999 565.389 1006.16 573 1015 573" stroke="#263238" stroke-width="5"/>
<path d="M1015 227C1006.16 227 999 234.611 999 244C999 253.389 1006.16 261 1015 261" stroke="#263238" stroke-width="5"/>
<path d="M736 399.5C858.5 399.5 843.5 244 996.5 244" stroke="#263238" stroke-width="5" stroke-linecap="round"/>
<path d="M736 400C858.5 400 843.5 555.5 996.5 555.5" stroke="#263238" stroke-width="5" stroke-linecap="round"/>
<rect x="1015.5" y="138.5" width="210" height="210" rx="105" fill="white"/>
<path d="M1165.86 278.305L1176.42 275.666" stroke="#263238" stroke-width="5.27778" stroke-miterlimit="10" stroke-linecap="round" stroke-linejoin="round"/>
<path d="M1070.86 211.277L1065.58 209.694" stroke="#263238" stroke-width="5.27778" stroke-miterlimit="10" stroke-linecap="round" stroke-linejoin="round"/>
<path d="M1070.86 232.389L1171.14 277.778V241.361L1070.86 211.278" fill="#FAFAFA"/>
<path d="M1070.86 232.389L1171.14 277.778V241.361L1070.86 211.278" stroke="#263238" stroke-width="5.27778" stroke-miterlimit="10" stroke-linecap="round" stroke-linejoin="round"/>
<path d="M1065.58 229.75L1070.86 232.389" stroke="#263238" stroke-width="5.27778" stroke-miterlimit="10" stroke-linecap="round" stroke-linejoin="round"/>
<path d="M1070.86 232.389V211.278" stroke="#263238" stroke-width="5.27778" stroke-miterlimit="10" stroke-linecap="round" stroke-linejoin="round"/>
<path d="M1176.42 241.361L1165.86 244" stroke="#263238" stroke-width="5.27778" stroke-miterlimit="10" stroke-linecap="round" stroke-linejoin="round"/>
<rect x="1015.5" y="138.5" width="210" height="210" rx="105" stroke="#263238" stroke-width="5"/>
<rect x="1015.5" y="450.5" width="210" height="210" rx="105" fill="white"/>
<path d="M1138.94 512.721L1136.83 600.86C1136.31 607.193 1130.5 614.054 1121 614.054C1111.5 614.054 1106.22 607.193 1105.17 600.86L1103.06 512.721" fill="#FAFAFA"/>
<path d="M1138.94 512.721L1136.83 600.86C1136.31 607.193 1130.5 614.054 1121 614.054C1111.5 614.054 1106.22 607.193 1105.17 600.86L1103.06 512.721" stroke="#263238" stroke-width="5.27778" stroke-miterlimit="10" stroke-linecap="round" stroke-linejoin="round"/>
<path d="M1121 515.888C1111.5 515.888 1102.53 513.777 1102.53 510.61C1102.53 510.082 1103.06 509.554 1103.58 509.027C1105.69 506.916 1112.56 505.332 1121 505.332C1130.5 505.332 1139.47 507.443 1139.47 510.61C1139.47 511.138 1139.47 511.666 1138.94 512.193C1136.31 514.832 1128.39 515.888 1121 515.888Z" fill="#FAFAFA" stroke="#263238" stroke-width="5.27778" stroke-miterlimit="10"/>
<rect x="1015.5" y="450.5" width="210" height="210" rx="105" stroke="#263238" stroke-width="5"/>
<defs>
<clipPath id="clip0_1547_2255">
<rect width="80.0374" height="65.5674" fill="white" transform="translate(43.6279 683.716)"/>
</clipPath>
</defs>
</svg>
