<svg width="1440" height="800" viewBox="0 0 1440 800" fill="none" xmlns="http://www.w3.org/2000/svg">
<g clip-path="url(#clip0_1301_7839)">
<rect width="1440" height="800" fill="white"/>
<g clip-path="url(#clip1_1301_7839)">
<path opacity="0.4" d="M-3.56641 210.371L573.244 223.969L575.511 318.027L-3.56641 261.366V210.371Z" fill="#287FFF"/>
<path opacity="0.6" d="M-3.56641 203.571L180.016 202.438L563.045 205.838L564.178 223.403L-3.56641 210.371V203.571Z" fill="#287FFF"/>
<path opacity="0.4" d="M750.027 229.635L1475.29 245.9V407.551L750.027 336.158V229.635Z" fill="#287FFF"/>
<path opacity="0.6" d="M1341.57 199.038L1475.29 199.605V246.634L761.359 228.502L1341.57 199.038Z" fill="#287FFF"/>
<path d="M761.356 -9.47485L1367.06 -5.50857L1341.57 199.038L760.223 229.069L761.356 -9.47485Z" fill="#EAEDF1"/>
<path d="M760.223 493.676L1277.54 600.766L1202.18 805.313L759.09 813.245L760.223 493.676Z" fill="#EAEDF1"/>
<path d="M-27.369 329.926L200.409 377.521L250.271 803.046L-33.0352 818.345L-27.369 329.926Z" fill="#EAEDF1"/>
<path d="M-25.1012 -2.6753L155.081 -13.4409L180.012 201.871L-37 203.571L-25.1012 -2.6753Z" fill="#EAEDF1"/>
<path d="M155.082 -12.8745H556.81L563.609 205.838L180.013 201.871L155.082 -12.8745Z" fill="#7E7E7E" fill-opacity="0.3"/>
<path d="M200.977 377.521L573.24 455.713L585.139 799.647H250.272L200.977 377.521Z" fill="#7E7E7E" fill-opacity="0.3"/>
<path d="M1278.11 600.199L1537.05 654.027L1522.88 818.345H1198.21L1278.11 600.199Z" fill="#7E7E7E" fill-opacity="0.3"/>
<path d="M1367.06 -4.94175L1516.65 -24.2065L1507.02 199.605H1341.57L1367.06 -4.94175Z" fill="#7E7E7E" fill-opacity="0.3"/>
<path d="M-3.56494 260.801L1482.66 407.554" stroke="#8D8D8D" stroke-width="2.26645" stroke-linecap="round"/>
<path d="M-3 330.494L1484.36 630.232" stroke="#8D8D8D" stroke-width="2.26645" stroke-linecap="round"/>
<path d="M759.097 493.676L1484.93 642.843" stroke="#8D8D8D" stroke-width="2.26645" stroke-linecap="round"/>
<path d="M759.097 493.676L757.964 820.045" stroke="#8D8D8D" stroke-width="2.26645" stroke-linecap="round"/>
<path d="M749.53 482.344L748.893 809.846" stroke="#8D8D8D" stroke-width="2.26645" stroke-linecap="round"/>
<path d="M580.044 448.347L593.643 813.245" stroke="#8D8D8D" stroke-width="2.26645" stroke-linecap="round"/>
<path d="M573.46 455.147L587.059 820.045" stroke="#8D8D8D" stroke-width="2.26645" stroke-linecap="round"/>
<path d="M573.46 455.147L-5.86197 334.323" stroke="#8D8D8D" stroke-width="2.26645" stroke-linecap="round"/>
<path d="M-3.56494 243.235L574.379 284.597" stroke="#8D8D8D" stroke-width="1.5" stroke-linecap="round" stroke-dasharray="5 7"/>
<path d="M750.028 297.629L1483.22 349.757" stroke="#8D8D8D" stroke-width="1.5" stroke-linecap="round" stroke-dasharray="5 7"/>
<path d="M-4.12988 216.037L572.681 233.035" stroke="#8D8D8D" stroke-width="1.5" stroke-linecap="round" stroke-dasharray="5 7"/>
<path d="M750.028 238.701L1477.56 260.232" stroke="#8D8D8D" stroke-width="1.5" stroke-linecap="round" stroke-dasharray="5 7"/>
<path d="M-3.56494 210.937L572.679 224.149" stroke="#8D8D8D" stroke-width="2.26645" stroke-linecap="round"/>
<path d="M750.028 228.502L1477.56 246.634" stroke="#8D8D8D" stroke-width="2.26645" stroke-linecap="round"/>
<path d="M180.018 202.438L563.614 206.018" stroke="#8D8D8D" stroke-width="1.13322" stroke-linecap="round"/>
<path d="M180.018 202.438L-10.3634 203.571" stroke="#8D8D8D" stroke-width="1.13322" stroke-linecap="round"/>
<path d="M180.018 202.438L155.087 -11.7412" stroke="#8D8D8D" stroke-width="1.13322" stroke-linecap="round"/>
<path d="M250.276 803.046L200.556 376.955" stroke="#8D8D8D" stroke-width="1.13322" stroke-linecap="round"/>
<path d="M1177.25 874.439L1278.11 600.199" stroke="#8D8D8D" stroke-width="1.13322" stroke-linecap="round"/>
<path d="M761.36 228.502L1341.57 199.038" stroke="#8D8D8D" stroke-width="1.13322" stroke-linecap="round"/>
<path d="M1341.57 199.038L1486.27 199.588" stroke="#8D8D8D" stroke-width="1.13322" stroke-linecap="round"/>
<path d="M1341.57 199.038L1367.64 -8.3415" stroke="#8D8D8D" stroke-width="1.13322" stroke-linecap="round"/>
<path d="M557.377 -0.975622L564.177 223.969" stroke="#8D8D8D" stroke-width="2.26645" stroke-linecap="round"/>
<path d="M565.312 -1.54227L576.076 317.46" stroke="#8D8D8D" stroke-width="2.26645" stroke-linecap="round"/>
<path d="M750.027 0.7243L748.894 335.025" stroke="#8D8D8D" stroke-width="2.26645" stroke-linecap="round"/>
<path d="M761.359 -14.0077L760.226 228.502" stroke="#8D8D8D" stroke-width="2.26645" stroke-linecap="round"/>
<path d="M518.314 284.644H548.14C552.361 284.644 554.724 289.511 552.112 292.827L537.08 311.916C535.046 314.499 531.126 314.484 529.112 311.885L514.318 292.796C511.744 289.474 514.111 284.644 518.314 284.644Z" fill="#287FFF"/>
<path d="M532.773 284.669L531.788 227" stroke="#287FFF" stroke-width="8.08906" stroke-linecap="round"/>
<path d="M782.603 304.453H819.056C824.216 304.453 827.103 310.402 823.911 314.456L805.538 337.786C803.052 340.943 798.261 340.925 795.8 337.748L777.719 314.418C774.572 310.357 777.466 304.453 782.603 304.453Z" fill="#287FFF"/>
<path d="M800.277 304.484L799.073 234" stroke="#287FFF" stroke-width="9.88662" stroke-linecap="round"/>
<path d="M1027.54 323.08H1070.13C1076.15 323.08 1079.53 330.03 1075.8 334.765L1054.33 362.021C1051.43 365.709 1045.83 365.687 1042.96 361.976L1021.83 334.721C1018.16 329.977 1021.54 323.08 1027.54 323.08Z" fill="#287FFF"/>
<path d="M1048.19 323.116L1046.78 240.774" stroke="#287FFF" stroke-width="11.55" stroke-linecap="round"/>
<path d="M1294.87 343.714H1355.09C1360.1 343.714 1362.9 349.49 1359.8 353.426L1329.45 391.966C1327.04 395.032 1322.39 395.014 1320 391.93L1290.13 353.389C1287.07 349.446 1289.88 343.714 1294.87 343.714Z" fill="#287FFF"/>
<path d="M1324.2 343.756L1322.54 247.001" stroke="#287FFF" stroke-width="13.5716" stroke-linecap="round"/>
<path d="M351.977 271.948H377.934C381.608 271.948 383.664 276.184 381.391 279.07L368.309 295.683C366.538 297.932 363.127 297.918 361.374 295.657L348.499 279.044C346.258 276.152 348.319 271.948 351.977 271.948Z" fill="#287FFF"/>
<path d="M364.561 271.97L363.703 221.781" stroke="#287FFF" stroke-width="7.04" stroke-linecap="round"/>
<path d="M190.576 260.341H212.484C215.585 260.341 217.32 263.916 215.402 266.352L204.36 280.374C202.866 282.271 199.987 282.26 198.508 280.351L187.641 266.33C185.75 263.889 187.489 260.341 190.576 260.341Z" fill="#287FFF"/>
<path d="M201.197 260.36L200.474 218" stroke="#287FFF" stroke-width="5.9417" stroke-linecap="round"/>
<path d="M45.2008 248.656H63.1321C65.6699 248.656 67.0902 251.582 65.5201 253.575L56.4827 265.052C55.2597 266.605 52.9031 266.595 51.6923 265.033L42.7983 253.557C41.2504 251.56 42.6739 248.656 45.2008 248.656Z" fill="#287FFF"/>
<path d="M53.8911 248.671L53.2989 214" stroke="#287FFF" stroke-width="4.86316" stroke-linecap="round"/>
</g>
<path d="M253.39 705.056H114.501C106.168 705.056 100.612 699.5 100.612 691.167V482.833C100.612 474.5 106.168 468.944 114.501 468.944H206.168C210.335 468.944 213.112 470.333 215.89 473.111L263.112 520.333C265.89 523.111 267.279 525.889 267.279 530.056V691.167C267.279 699.5 261.723 705.056 253.39 705.056Z" fill="white" stroke="#263238" stroke-width="5" stroke-linecap="round" stroke-linejoin="round"/>
<path d="M183.948 468.944H197.837C206.17 468.944 211.726 474.5 211.726 482.833V510.611C211.726 518.944 217.282 524.5 225.615 524.5H253.393C261.726 524.5 267.282 530.056 267.282 538.389V552.278" stroke="#263238" stroke-width="5" stroke-linecap="round" stroke-linejoin="round"/>
<path d="M159.452 524.59C159.452 523.012 160.229 521.639 162.608 520.587C165.458 519.324 171.103 518.405 171.103 511.438C171.103 502.591 163.381 497.714 153.454 497.714C143.532 497.714 135.156 502.591 135.156 511.438C135.156 518.405 141.336 519.306 144.305 520.587C146.693 521.621 147.466 523.012 147.466 524.59C147.466 526.163 145.312 529.736 142.677 529.736H133.088C130.458 529.736 128.299 531.79 128.299 534.311V570.907C128.299 573.423 130.458 575.482 133.093 575.482H173.834C176.464 575.482 178.624 573.423 178.624 570.907V534.311C178.624 531.79 176.464 529.736 173.834 529.736H164.246C161.606 529.736 159.452 526.163 159.452 524.59Z" fill="#287FFF" stroke="#287FFF" stroke-width="1.93042" stroke-miterlimit="10" stroke-linecap="round" stroke-linejoin="round"/>
<line x1="150.279" y1="603.98" x2="237.812" y2="603.98" stroke="#263238" stroke-width="5" stroke-linecap="round"/>
<line x1="127.552" y1="626.708" x2="208.591" y2="626.708" stroke="#263238" stroke-width="5" stroke-linecap="round"/>
<line x1="220.084" y1="626.708" x2="237.812" y2="626.708" stroke="#263238" stroke-width="5" stroke-linecap="round"/>
<line x1="171.383" y1="649.435" x2="237.812" y2="649.435" stroke="#263238" stroke-width="5" stroke-linecap="round"/>
<line x1="127.552" y1="649.435" x2="159.889" y2="649.435" stroke="#263238" stroke-width="5" stroke-linecap="round"/>
<line x1="127.552" y1="603.98" x2="138.786" y2="603.98" stroke="#263238" stroke-width="5" stroke-linecap="round"/>
<line x1="189.24" y1="672.162" x2="237.812" y2="672.162" stroke="#263238" stroke-width="5" stroke-linecap="round"/>
<line x1="203.851" y1="581.253" x2="237.812" y2="581.253" stroke="#263238" stroke-width="5" stroke-linecap="round"/>
<line x1="203.851" y1="558.526" x2="237.812" y2="558.526" stroke="#263238" stroke-width="5" stroke-linecap="round"/>
</g>
<defs>
<clipPath id="clip0_1301_7839">
<rect width="1440" height="800" fill="white"/>
</clipPath>
<clipPath id="clip1_1301_7839">
<rect width="1440" height="800" fill="white"/>
</clipPath>
</defs>
</svg>
