<svg width="1440" height="800" viewBox="0 0 1440 800" fill="none" xmlns="http://www.w3.org/2000/svg">
<g clip-path="url(#clip0_1301_8626)">
<rect width="1440" height="800" fill="#EAEDF1"/>
<path d="M-177.48 161.384L369.191 276.168C400.389 277.711 414.418 275.468 432.38 265.733L984.849 -108.184L1131.52 -95.4299L1268.91 -108.184C1268.91 -108.184 732.673 389.212 642.237 465.155C551.802 541.098 380.785 570.083 249.77 535.88C118.754 501.677 -193.133 421.096 -193.133 421.096L-177.48 161.384Z" fill="#E9E9E9"/>
<path d="M961.661 542.257L1060.79 419.357L1656.74 542.257L1623.7 895.883L956.443 723.708L961.661 542.257Z" fill="#E9E9E9"/>
<path d="M1020.21 -132.531L432.965 266.311" stroke="#9D9D9D" stroke-width="3.47829" stroke-linecap="round"/>
<path d="M1148.33 -105.865L633.542 306.696" stroke="#9D9D9D" stroke-width="3.47829" stroke-linecap="round"/>
<path d="M1258.48 -97.7485L641.66 465.538" stroke="#9D9D9D" stroke-width="3.47829" stroke-linecap="round"/>
<path d="M366.874 275.589L223.105 370.662" stroke="#9D9D9D" stroke-width="3.47829" stroke-linecap="round"/>
<path d="M633.544 306.893C540.209 370.662 363.977 400.807 223.105 370.662" stroke="#9D9D9D" stroke-width="3.47829" stroke-linecap="round"/>
<path d="M248.613 536.461L223.105 370.662" stroke="#9D9D9D" stroke-width="3.47829" stroke-linecap="round"/>
<path d="M248.613 536.461C394.121 571.823 559.92 536.461 641.66 465.735" stroke="#9D9D9D" stroke-width="3.47829" stroke-linecap="round"/>
<path d="M641.66 465.735L633.544 306.893" stroke="#9D9D9D" stroke-width="3.47829" stroke-linecap="round"/>
<path d="M432.962 266.313L633.543 306.893" stroke="#9D9D9D" stroke-width="3.47829" stroke-linecap="round"/>
<path d="M366.874 275.589C401.322 278.319 415.264 275.907 432.961 266.313" stroke="#9D9D9D" stroke-width="3.47829" stroke-linecap="round"/>
<path d="M366.874 275.589L-185.015 159.646" stroke="#9D9D9D" stroke-width="3.47829" stroke-linecap="round"/>
<path d="M1646.89 539.939L1060.21 419.358" stroke="#9D9D9D" stroke-width="3.47829" stroke-linecap="round"/>
<path d="M1646.89 701.1L961.662 542.258" stroke="#9D9D9D" stroke-width="3.47829" stroke-linecap="round"/>
<path d="M1652.68 904L957.025 723.129" stroke="#9D9D9D" stroke-width="3.47829" stroke-linecap="round"/>
<path d="M961.662 542.258L957.024 723.129" stroke="#9D9D9D" stroke-width="3.47829" stroke-linecap="round"/>
<path d="M1060.21 419.358L961.662 542.258" stroke="#9D9D9D" stroke-width="3.47829" stroke-linecap="round"/>
<path d="M223.105 370.662L-294.001 251.241" stroke="#9D9D9D" stroke-width="3.47829" stroke-linecap="round"/>
<path d="M248.613 536.461L-275.45 398.488" stroke="#9D9D9D" stroke-width="3.47829" stroke-linecap="round"/>
<path d="M368.357 275.741L1060.21 419.357" stroke="#297FFF" stroke-width="2.89858" stroke-linecap="round" stroke-linejoin="round" stroke-dasharray="6.96 11.59"/>
<path d="M432.96 266.312L632.358 306.693" stroke="#297FFF" stroke-width="2.89858" stroke-linecap="round" stroke-linejoin="round" stroke-dasharray="6.96 11.59"/>
<path d="M222.701 372.238L960.084 541.563" stroke="#297FFF" stroke-width="2.89858" stroke-linecap="round" stroke-linejoin="round" stroke-dasharray="6.96 11.59"/>
<path d="M222.701 372.238L248.191 536.101" stroke="#297FFF" stroke-width="2.89858" stroke-linecap="round" stroke-linejoin="round" stroke-dasharray="6.96 11.59"/>
<path d="M406.591 283.024L417.516 439.604" stroke="#297FFF" stroke-opacity="0.6" stroke-width="2.89858" stroke-linecap="round" stroke-linejoin="round" stroke-dasharray="6.96 11.59"/>
<path d="M368.357 275.741L379.281 428.68" stroke="#297FFF" stroke-opacity="0.6" stroke-width="2.89858" stroke-linecap="round" stroke-linejoin="round" stroke-dasharray="6.96 11.59"/>
<path d="M495.806 435.962L510.372 605.287" stroke="#297FFF" stroke-width="2.89858" stroke-linecap="round" stroke-linejoin="round" stroke-dasharray="6.96 11.59"/>
<path d="M626.896 328.541L495.806 434.142" stroke="#297FFF" stroke-width="2.89858" stroke-linecap="round" stroke-linejoin="round" stroke-dasharray="6.96 11.59"/>
<path d="M634.179 490.583L510.371 605.287" stroke="#297FFF" stroke-opacity="0.6" stroke-width="2.89858" stroke-linecap="round" stroke-linejoin="round" stroke-dasharray="6.96 11.59"/>
<path d="M1052.94 590.722L956.442 721.812" stroke="#297FFF" stroke-width="2.89858" stroke-linecap="round" stroke-linejoin="round" stroke-dasharray="6.96 11.59"/>
<path d="M1060.21 419.357L960.084 541.563" stroke="#297FFF" stroke-width="2.89858" stroke-linecap="round" stroke-linejoin="round" stroke-dasharray="6.96 11.59"/>
<path d="M368.357 275.741L222.701 372.238" stroke="#297FFF" stroke-width="2.89858" stroke-linecap="round" stroke-linejoin="round" stroke-dasharray="6.96 11.59"/>
<path d="M432.96 266.312L406.592 283.024" stroke="#297FFF" stroke-width="2.89858" stroke-linecap="round" stroke-linejoin="round" stroke-dasharray="6.96 11.59"/>
<path d="M632.358 306.693L608.689 324.9" stroke="#297FFF" stroke-width="2.89858" stroke-linecap="round" stroke-linejoin="round" stroke-dasharray="6.96 11.59"/>
<path d="M639.641 466.914L615.972 486.942" stroke="#297FFF" stroke-opacity="0.6" stroke-width="2.89858" stroke-linecap="round" stroke-linejoin="round" stroke-dasharray="6.96 11.59"/>
<path d="M632.358 306.693L639.641 466.914" stroke="#297FFF" stroke-opacity="0.6" stroke-width="2.89858" stroke-linecap="round" stroke-linejoin="round" stroke-dasharray="6.96 11.59"/>
<path d="M608.689 324.9L615.972 486.942" stroke="#297FFF" stroke-opacity="0.6" stroke-width="2.89858" stroke-linecap="round" stroke-linejoin="round" stroke-dasharray="6.96 11.59"/>
<path d="M626.896 328.541L634.179 490.583" stroke="#297FFF" stroke-opacity="0.6" stroke-width="2.89858" stroke-linecap="round" stroke-linejoin="round" stroke-dasharray="6.96 11.59"/>
<path d="M1060.21 419.357L1052.94 590.722" stroke="#297FFF" stroke-width="2.89858" stroke-linecap="round" stroke-linejoin="round" stroke-dasharray="6.96 11.59"/>
<path d="M960.084 541.563L956.443 721.812" stroke="#297FFF" stroke-width="2.89858" stroke-linecap="round" stroke-linejoin="round" stroke-dasharray="6.96 11.59"/>
<path d="M379.281 430.5L248.191 536.101" stroke="#297FFF" stroke-opacity="0.6" stroke-width="2.89858" stroke-linecap="round" stroke-linejoin="round" stroke-dasharray="6.96 11.59"/>
<path d="M248.19 536.101L956.442 721.812" stroke="#297FFF" stroke-width="2.89858" stroke-linecap="round" stroke-linejoin="round" stroke-dasharray="6.96 11.59"/>
<path d="M379.281 430.5L1052.94 590.722" stroke="#297FFF" stroke-opacity="0.6" stroke-width="2.89858" stroke-linecap="round" stroke-linejoin="round" stroke-dasharray="6.96 11.59"/>
<path opacity="0.2" d="M223.104 371.821L368.612 275.588L405.714 283.124L432.961 266.312L632.383 306.893L633.542 330.081L1059.63 419.357L961.081 542.837L957.023 722.548L248.611 535.88L223.104 371.821Z" fill="#287FFF"/>
<path d="M1009 571L1008.54 341" stroke="#263238" stroke-width="3" stroke-linecap="round"/>
<path d="M1014 333L1005 333" stroke="#263238" stroke-width="2" stroke-linecap="round"/>
<path d="M1014 323L1006 323" stroke="#263238" stroke-width="2" stroke-linecap="round"/>
<path d="M1014 323L1005 333" stroke="#263238" stroke-width="2" stroke-linecap="round"/>
<path d="M884 735L875 745" stroke="#263238" stroke-width="2" stroke-linecap="round"/>
<path d="M875 735L884 745" stroke="#263238" stroke-width="2" stroke-linecap="round"/>
<path d="M1242 622L1233 632" stroke="#263238" stroke-width="2" stroke-linecap="round"/>
<path d="M1233 622L1237 627" stroke="#263238" stroke-width="2" stroke-linecap="round"/>
<path d="M960 559L469 444" stroke="#263238" stroke-width="3" stroke-linecap="round"/>
<path d="M469 444L420 433" stroke="#263238" stroke-width="3" stroke-linecap="round" stroke-linejoin="round" stroke-dasharray="6 6"/>
<path d="M1009 571L960 559" stroke="#263238" stroke-width="3" stroke-linecap="round" stroke-linejoin="round" stroke-dasharray="6 6"/>
<path d="M1009 571L1225 623.5" stroke="#263238" stroke-width="3" stroke-linecap="round"/>
<path d="M1009 571L886.177 729.931" stroke="#263238" stroke-width="3" stroke-linecap="round"/>
<path d="M419.094 431.969L422.394 422.894C422.394 422.894 437.863 407.425 440.956 404.331C442.4 402.887 448.175 408.662 446.731 410.106C442.4 414.437 428.169 428.669 428.169 428.669L419.094 431.969Z" fill="white" stroke="#263238" stroke-width="2.0625" stroke-miterlimit="10" stroke-linecap="round" stroke-linejoin="round"/>
<path d="M443.548 413.377L437.715 407.543L423.131 422.127L428.964 427.96L443.548 413.377Z" stroke="#263238" stroke-width="2.0625" stroke-miterlimit="10" stroke-linecap="round" stroke-linejoin="round"/>
</g>
<defs>
<clipPath id="clip0_1301_8626">
<rect width="1440" height="800" fill="white"/>
</clipPath>
</defs>
</svg>
