<svg width="1750" height="1750" viewBox="0 0 1750 1750" fill="none" xmlns="http://www.w3.org/2000/svg">
<path d="M1172 1182L1331 1036L1492 1182V1467H1172V1182Z" fill="#EAEDF1"/>
<path d="M1523 1499H1143V1318H1264V1481H1508V1318H1523V1499Z" fill="white"/>
<path fill-rule="evenodd" clip-rule="evenodd" d="M1264 1318H1389V1438H1264V1435H1269V1322H1264V1318ZM1274 1322H1326V1435H1274V1322ZM1384 1322H1331V1435H1384V1322Z" fill="#313131"/>
<path fill-rule="evenodd" clip-rule="evenodd" d="M1478 1318H1426V1438H1478V1318ZM1430 1319H1475V1434H1430V1319Z" fill="#313131"/>
<path d="M1508 1481V1318L1492 1318V1457.5L1508 1481Z" fill="#E7E7E8"/>
<rect x="1479" y="1318" width="12" height="120" fill="white"/>
<rect x="1389" y="1318" width="37" height="120" fill="white"/>
<path d="M1265 1481V1438H1491.07L1492.07 1439V1458L1508 1481H1265Z" fill="#DADADB"/>
<path fill-rule="evenodd" clip-rule="evenodd" d="M1365 1118H1301V1300H1365V1118ZM1306 1123H1360V1295H1306V1123Z" fill="#313131"/>
<path fill-rule="evenodd" clip-rule="evenodd" d="M1478 1194H1414V1300H1478V1194ZM1419 1199H1473V1295H1419V1199Z" fill="#313131"/>
<path fill-rule="evenodd" clip-rule="evenodd" d="M1252 1194H1188V1300H1252V1194ZM1193 1199H1247V1295H1193V1199Z" fill="#313131"/>
<path d="M1144 1215L1138 1210.5L1333 1016L1528 1211L1522.5 1214.5L1501 1198L1335 1059L1188 1181.5L1144 1215Z" fill="#287FFF"/>
<path d="M1138 1210.5L1144 1215" stroke="#B1B1B5" stroke-width="2"/>
<path fill-rule="evenodd" clip-rule="evenodd" d="M1143 1209.5V1318H1523V1209.5L1333 1020L1143 1209.5ZM1252 1194H1188V1300H1252V1194ZM1414 1194H1478V1300H1414V1194ZM1365 1300V1118H1301V1300H1365Z" fill="#7AAEFB"/>
<path d="M1138 1211V1193.5L1333 999L1528 1194V1210.5L1333 1016L1138 1211Z" fill="#7AAEFB"/>
<rect x="1193" y="1288" width="54" height="7" fill="#CCDDF7"/>
<rect x="1306" y="1288" width="54" height="7" fill="#CCDDF7"/>
<rect x="1419" y="1288" width="54" height="7" fill="#CCDDF7"/>
<path d="M1333 1021.41L1522 1209.91V1498H1144V1209.91L1333 1021.41Z" stroke="#B1B1B5" stroke-width="2"/>
<path d="M1493 1319H1507V1477.81L1493 1457.69V1319Z" stroke="#B1B1B5" stroke-width="2"/>
<path d="M1265 1437V1319H1490V1437H1265Z" stroke="#B1B1B5" stroke-width="2"/>
<path d="M1490 1437L1492.5 1439.5" stroke="#B1B1B5" stroke-width="2"/>
<path d="M1490.5 1318.5H1492.5" stroke="#B1B1B5"/>
<path d="M1265 1437V1481" stroke="#B1B1B5" stroke-width="2"/>
<path d="M1264 1480H1508" stroke="#B1B1B5" stroke-width="2"/>
<path d="M1138 1211L1333 1016L1528 1210.5L1522 1215" stroke="#B1B1B5" stroke-width="2" stroke-linejoin="bevel"/>
<path d="M1138 1211.5V1194L1333 999.5L1528 1194V1211.72" stroke="#B1B1B5" stroke-width="2"/>
<rect x="746" y="1279" width="235" height="172" fill="#EAEDF1"/>
<path d="M1045 1480V1299L1029 1292V1456.5L1045 1480Z" fill="#E7E7E8"/>
<path d="M1060 1299V1498H680V1317H801V1480H1045V1299H1060Z" fill="white"/>
<path d="M711 1166L606 1045H1134L1060 1130L1045 1166H711Z" fill="#287FFF"/>
<rect x="606" y="1032" width="528" height="13" fill="#7AAEFB"/>
<path d="M1134 1045V1032H606V1045L711 1166L1060 1130L1134 1045Z" stroke="#B1B1B5" stroke-width="2"/>
<path d="M1032 1287V1108H711V1287H1032Z" fill="#7AAEFB"/>
<path d="M1045 1299H1060V1060H1045V1299Z" fill="#7AAEFB"/>
<path d="M1016 1437V1136H963V1437H1016Z" fill="#313131"/>
<path d="M1012 1140H967V1433H1012V1140Z" fill="#EAEDF1"/>
<path d="M680 1317V1238H801V1299H970V1317H680Z" fill="#7AAEFB"/>
<path d="M955 1236H952V1238H963H971L955 1236Z" fill="#313131"/>
<path d="M963 1293V1242H967V1296L963 1293Z" fill="#7D807F"/>
<path d="M963 1242H953V1287H963V1242Z" fill="#CCDDF7"/>
<path d="M955 1286L970 1297H966L952 1287V1286H955Z" fill="#7D807F"/>
<path d="M953 1287H801V1297H967L953 1287Z" fill="#5197FD"/>
<path d="M971 1238H801H799V1242H971V1238Z" fill="#313131"/>
<path d="M1029 1292L1045 1299V1060L1029 1087V1292Z" fill="#5197FD"/>
<path d="M800 1299V1297H970V1299H800Z" fill="#313131"/>
<path d="M953 1287V1242H926V1287H953Z" fill="#A3C6F9"/>
<path d="M926 1135H748V1238H926V1135Z" fill="#313131"/>
<path d="M806 1285V1242H926V1287H801V1285H806Z" fill="#7D807F"/>
<rect x="754" y="1140" width="52" height="98" fill="#EAEDF1"/>
<rect x="811" y="1140" width="52" height="98" fill="#EAEDF1"/>
<rect x="811" y="1242" width="52" height="43" fill="white"/>
<rect x="801" y="1242" width="5" height="43" fill="white"/>
<rect x="868" y="1242" width="53" height="43" fill="white"/>
<rect x="868" y="1140" width="53" height="98" fill="#EAEDF1"/>
<path d="M691 1238V1061H686V1238H691Z" fill="#5197FD"/>
<path d="M691 1061H686V1238H691V1061Z" stroke="#B1B1B5" stroke-width="2"/>
<path fill-rule="evenodd" clip-rule="evenodd" d="M801 1317H926V1437H801V1434H806V1321H801V1317ZM811 1321H863V1434H811V1321ZM921 1321H868V1434H921V1321Z" fill="#313131"/>
<path d="M1045 1480V1317L1029 1317V1456.5L1045 1480Z" fill="#E7E7E8"/>
<rect x="1016" y="1287" width="12" height="150" fill="white"/>
<rect x="926" y="1317" width="37" height="120" fill="white"/>
<path d="M801 1480V1437H1028L1029 1438V1457L1045 1480H801Z" fill="#DADADB"/>
<path d="M606 1045H1134" stroke="#B1B1B5" stroke-width="2"/>
<path d="M711 1238V1108H1029M1029 1108V1457L1045 1480V1060L1029 1087V1108Z" stroke="#B1B1B5" stroke-width="2" stroke-linejoin="bevel"/>
<path d="M1045 1060H1060V1498H680V1238H799" stroke="#B1B1B5" stroke-width="2" stroke-linejoin="bevel"/>
<path d="M970 1299V1317H801V1480H1045" stroke="#B1B1B5" stroke-width="2" stroke-linejoin="bevel"/>
<path d="M801.5 1437.5L1028 1438" stroke="#B1B1B5" stroke-width="2"/>
<rect x="347" y="1274" width="235" height="172" fill="#EAEDF1"/>
<path d="M614 1498H234V1317H355V1480H599V1317H614V1498Z" fill="white"/>
<path fill-rule="evenodd" clip-rule="evenodd" d="M355 1317H480V1437H355V1434H360V1321H355V1317ZM365 1321H417V1434H365V1321ZM475 1321H422V1434H475V1321Z" fill="#313131"/>
<path d="M599 1480V1317L583 1317V1456.5L599 1480Z" fill="#E7E7E8"/>
<rect x="570" y="1317" width="12" height="120" fill="white"/>
<rect x="480" y="1317" width="37" height="120" fill="white"/>
<path d="M355 1480V1437H582L583 1438V1457L599 1480H355Z" fill="#DADADB"/>
<path fill-rule="evenodd" clip-rule="evenodd" d="M570 1317H517V1437H570V1317ZM521 1318H566V1433H521V1318Z" fill="#313131"/>
<path d="M614 1110V1317H234V1008L614 1110Z" fill="#7AAEFB"/>
<path d="M279 1299V1117H469V1299H279Z" fill="#313131"/>
<rect x="284" y="1122" width="54" height="172" fill="#EAEDF1"/>
<rect x="347" y="1122" width="54" height="172" fill="#EAEDF1"/>
<rect x="410" y="1122" width="55" height="172" fill="#EAEDF1"/>
<rect x="536" y="1151" width="63" height="148" fill="#313131"/>
<rect x="540" y="1155" width="55" height="139" fill="#EAEDF1"/>
<path d="M355 1480V1317H599V1480H355Z" stroke="#B1B1B5" stroke-width="2"/>
<path d="M355 1437H582L583 1438" stroke="#B1B1B5" stroke-width="2"/>
<path d="M599 1480L583 1457V1317" stroke="#B1B1B5" stroke-width="2"/>
<path d="M614 1498H234V1008L614 1110V1498Z" stroke="#B1B1B5" stroke-width="2"/>
</svg>
