<svg width="1800" height="1800" viewBox="0 0 1800 1800" fill="none" xmlns="http://www.w3.org/2000/svg">
<circle cx="546" cy="1193" r="18" fill="white"/>
<circle cx="727" cy="1518" r="18" fill="white"/>
<g clip-path="url(#clip0_1589_2304)">
<g clip-path="url(#clip1_1589_2304)">
<rect width="857" height="495.472" transform="translate(724 1304.53)" fill="#DADADB"/>
<g clip-path="url(#clip2_1589_2304)">
<rect width="795" height="460" transform="translate(755 1340)" fill="white"/>
<rect x="755" y="1340" width="32" height="21" fill="#F0F0F0"/>
<path d="M769.5 1344.5H762.5V1349.5H769.5V1344.5Z" stroke="#263238" stroke-miterlimit="10" stroke-linecap="round" stroke-linejoin="round"/>
<path d="M779.5 1344.5H772.5V1349.5H779.5V1344.5Z" stroke="#263238" stroke-miterlimit="10" stroke-linecap="round" stroke-linejoin="round"/>
<path d="M769.5 1352.5H762.5V1357.5H769.5V1352.5Z" stroke="#263238" stroke-miterlimit="10" stroke-linecap="round" stroke-linejoin="round"/>
<path d="M779.5 1352.5H772.5V1357.5H779.5V1352.5Z" stroke="#263238" stroke-miterlimit="10" stroke-linecap="round" stroke-linejoin="round"/>
<rect x="787" y="1340" width="191" height="21" fill="white"/>
<path d="M882.5 1344.5C882.5 1344 882.1 1343.5 881.5 1343.5H875.5C874.9 1343.5 874.5 1344 874.5 1344.5V1356.5C874.5 1357.1 874.9 1357.5 875.5 1357.5H890.5C891 1357.5 891.5 1357.1 891.5 1356.5V1350.5C891.5 1349.9 891 1349.5 890.5 1349.5H883.5C882.9 1349.5 882.5 1349.1 882.5 1348.5V1344.5Z" fill="white" stroke="#263238" stroke-miterlimit="10" stroke-linecap="round" stroke-linejoin="round"/>
<path d="M882.5 1344.5C882.5 1344 882.1 1343.5 881.5 1343.5H875.5C874.9 1343.5 874.5 1344 874.5 1344.5V1356.5C874.5 1357.1 874.9 1357.5 875.5 1357.5H890.5C891 1357.5 891.5 1357.1 891.5 1356.5V1350.5C891.5 1349.9 891 1349.5 890.5 1349.5H883.5C882.9 1349.5 882.5 1349.1 882.5 1348.5V1344.5Z" fill="white" stroke="#263238" stroke-miterlimit="10" stroke-linecap="round" stroke-linejoin="round"/>
<path d="M877.5 1344V1347.5C877.5 1347.5 880.5 1346.5 880.5 1344" fill="white"/>
<path d="M877.5 1344V1347.5C877.5 1347.5 880.5 1346.5 880.5 1344" stroke="#263238" stroke-miterlimit="10" stroke-linecap="round" stroke-linejoin="round"/>
<mask id="path-13-inside-1_1589_2304" fill="white">
<path d="M978 1340H1169V1361H978V1340Z"/>
</mask>
<path d="M978 1340H1169V1361H978V1340Z" fill="#F0F0F0"/>
<path d="M1168 1340V1361H1170V1340H1168Z" fill="#D6D6D6" mask="url(#path-13-inside-1_1589_2304)"/>
<path d="M1081.5 1356.5H1066.5V1348.5H1065.5L1074 1344.5L1082.5 1348.5H1081.5V1356.5Z" fill="#ECECEC" stroke="#263238" stroke-miterlimit="10" stroke-linecap="round" stroke-linejoin="round"/>
<path d="M1066.5 1348.5H1081.5H1066.5Z" fill="white"/>
<path d="M1066.5 1348.5H1081.5" stroke="#263238" stroke-miterlimit="10" stroke-linecap="round" stroke-linejoin="round"/>
<mask id="path-18-inside-2_1589_2304" fill="white">
<path d="M1169 1340H1360V1361H1169V1340Z"/>
</mask>
<path d="M1169 1340H1360V1361H1169V1340Z" fill="#F0F0F0"/>
<path d="M1359 1340V1361H1361V1340H1359Z" fill="#D6D6D6" mask="url(#path-18-inside-2_1589_2304)"/>
<path d="M1257.5 1356.5V1345.5L1268.5 1343.5L1272.5 1345.5V1354.5L1268.5 1359.5L1257.5 1356.5Z" fill="white" stroke="#263238" stroke-miterlimit="10" stroke-linecap="round" stroke-linejoin="round"/>
<path d="M1268.5 1343.5V1359.5" stroke="#263238" stroke-miterlimit="10" stroke-linecap="round" stroke-linejoin="round"/>
<path d="M1360 1340H1551V1361H1360V1340Z" fill="#F0F0F0"/>
<path d="M1463.5 1357H1448.5V1349H1447.5L1456 1345L1464.5 1349H1463.5V1357Z" fill="white"/>
<path d="M1463.5 1357H1448.5V1349H1447.5L1456 1345L1464.5 1349H1463.5V1357Z" stroke="#263238" stroke-miterlimit="10" stroke-linecap="round" stroke-linejoin="round"/>
</g>
<g clip-path="url(#clip3_1589_2304)">
<rect width="53.179" height="101.04" transform="matrix(0.751404 -0.659843 -0.659843 -0.751404 1189.2 1460.31)" stroke="#B1B1B5" stroke-width="3.54527" stroke-linejoin="round"/>
<rect width="26.5895" height="37.2253" transform="matrix(0.751404 -0.659843 -0.659843 -0.751404 1189.2 1460.31)" stroke="#B1B1B5" stroke-width="3.54527" stroke-linejoin="round"/>
<rect width="28.3621" height="24.8169" transform="matrix(0.751404 -0.659843 -0.659843 -0.751404 1148.43 1411.19)" stroke="#B1B1B5" stroke-width="1.77263" stroke-linejoin="round"/>
<rect width="5.3179" height="10.6358" transform="matrix(0.751404 -0.659843 -0.659843 -0.751404 1155.45 1419.18)" stroke="#B1B1B5" stroke-width="1.77263" stroke-linejoin="round"/>
<rect width="5.3179" height="10.6358" transform="matrix(0.751404 -0.659843 -0.659843 -0.751404 1132.05 1392.54)" stroke="#B1B1B5" stroke-width="1.77263" stroke-linejoin="round"/>
<path d="M1191.64 1422.78L1200.96 1414.59L1201.55 1415.26C1205.1 1419.31 1204.7 1425.47 1200.66 1429.02L1198.66 1430.77L1191.64 1422.78Z" stroke="#B1B1B5" stroke-width="1.77263" stroke-linejoin="round"/>
<path d="M1226.5 1427.56L1217.15 1416.9L1215.15 1418.65C1211.1 1422.21 1210.7 1428.37 1214.26 1432.41L1217.18 1435.74L1226.5 1427.56Z" stroke="#B1B1B5" stroke-width="1.77263" stroke-linejoin="round"/>
<path d="M1133.03 1377.53L1154.34 1358.82" stroke="white" stroke-width="1.77263" stroke-linecap="round"/>
<path d="M1130.69 1374.87L1152 1356.15" stroke="white" stroke-width="1.77263" stroke-linecap="round"/>
<rect width="53.179" height="101.04" transform="matrix(0.991561 0.129644 0.129644 -0.991561 1469.36 1386.1)" stroke="#B1B1B5" stroke-width="3.54527" stroke-linejoin="round"/>
<rect width="26.5895" height="37.2253" transform="matrix(0.991561 0.129644 0.129644 -0.991561 1469.36 1386.09)" stroke="#B1B1B5" stroke-width="3.54527" stroke-linejoin="round"/>
<path d="M1499.18 1363.18L1511.48 1364.79L1511.37 1365.67C1510.67 1371 1505.78 1374.77 1500.44 1374.07L1497.8 1373.72L1499.18 1363.18Z" stroke="#B1B1B5" stroke-width="1.77263" stroke-linejoin="round"/>
<path d="M1518.59 1392.53L1520.42 1378.47L1517.79 1378.12C1512.45 1377.43 1507.55 1381.19 1506.86 1386.53L1506.28 1390.92L1518.59 1392.53Z" stroke="#B1B1B5" stroke-width="1.77263" stroke-linejoin="round"/>
<rect width="53.179" height="101.04" transform="matrix(0.934951 -0.354777 -0.354777 -0.934951 812.207 1680.13)" stroke="#B1B1B5" stroke-width="3.54527" stroke-linejoin="round"/>
<rect width="26.5895" height="37.2253" transform="matrix(0.934951 -0.354777 -0.354777 -0.934951 812.207 1680.13)" stroke="#B1B1B5" stroke-width="3.54527" stroke-linejoin="round"/>
<rect width="28.3621" height="24.8169" transform="matrix(0.934951 -0.354777 -0.354777 -0.934951 791.227 1619.84)" stroke="#B1B1B5" stroke-width="1.77263" stroke-linejoin="round"/>
<rect width="5.3179" height="10.6358" transform="matrix(0.934951 -0.354777 -0.354777 -0.934951 795 1629.78)" stroke="#B1B1B5" stroke-width="1.77263" stroke-linejoin="round"/>
<rect width="5.3179" height="10.6358" transform="matrix(0.934951 -0.354777 -0.354777 -0.934951 782.418 1596.64)" stroke="#B1B1B5" stroke-width="1.77263" stroke-linejoin="round"/>
<path d="M827.641 1645.84L839.242 1641.44L839.556 1642.26C841.467 1647.3 838.934 1652.93 833.9 1654.84L831.414 1655.78L827.641 1645.84Z" stroke="#B1B1B5" stroke-width="1.77263" stroke-linejoin="round"/>
<path d="M858.617 1662.52L853.586 1649.26L851.1 1650.21C846.066 1652.12 843.533 1657.75 845.444 1662.78L847.016 1666.92L858.617 1662.52Z" stroke="#B1B1B5" stroke-width="1.77263" stroke-linejoin="round"/>
<path d="M788.59 1582.92L815.107 1572.86" stroke="white" stroke-width="1.77263" stroke-linecap="round"/>
<path d="M787.336 1579.61L813.853 1569.54" stroke="white" stroke-width="1.77263" stroke-linecap="round"/>
<rect width="53.179" height="101.04" transform="matrix(0.751404 -0.659843 -0.659843 -0.751404 1269.25 1390.02)" stroke="#B1B1B5" stroke-width="3.54527" stroke-linejoin="round"/>
<rect width="26.5895" height="37.2253" transform="matrix(0.751404 -0.659843 -0.659843 -0.751404 1269.25 1390.02)" stroke="#B1B1B5" stroke-width="3.54527" stroke-linejoin="round"/>
<path d="M1271.69 1352.49L1281.01 1344.3L1281.6 1344.97C1285.15 1349.01 1284.75 1355.17 1280.7 1358.72L1278.71 1360.48L1271.69 1352.49Z" stroke="#B1B1B5" stroke-width="1.77263" stroke-linejoin="round"/>
<path d="M1306.55 1357.26L1297.19 1346.61L1295.2 1348.36C1291.15 1351.91 1290.75 1358.07 1294.3 1362.12L1297.23 1365.45L1306.55 1357.26Z" stroke="#B1B1B5" stroke-width="1.77263" stroke-linejoin="round"/>
<rect width="53.179" height="101.04" transform="matrix(0.934951 -0.354777 -0.354777 -0.934951 911.805 1642.34)" stroke="#B1B1B5" stroke-width="3.54527" stroke-linejoin="round"/>
<rect width="26.5895" height="37.2253" transform="matrix(0.934951 -0.354777 -0.354777 -0.934951 911.805 1642.34)" stroke="#B1B1B5" stroke-width="3.54527" stroke-linejoin="round"/>
<rect width="28.3621" height="24.8169" transform="matrix(0.934951 -0.354777 -0.354777 -0.934951 890.824 1582.05)" stroke="#B1B1B5" stroke-width="1.77263" stroke-linejoin="round"/>
<rect width="5.3179" height="10.6358" transform="matrix(0.934951 -0.354777 -0.354777 -0.934951 894.598 1591.99)" stroke="#B1B1B5" stroke-width="1.77263" stroke-linejoin="round"/>
<rect width="5.3179" height="10.6358" transform="matrix(0.934951 -0.354777 -0.354777 -0.934951 882.016 1558.84)" stroke="#B1B1B5" stroke-width="1.77263" stroke-linejoin="round"/>
<path d="M927.238 1608.04L938.84 1603.64L939.154 1604.47C941.064 1609.5 938.532 1615.13 933.498 1617.04L931.012 1617.99L927.238 1608.04Z" stroke="#B1B1B5" stroke-width="1.77263" stroke-linejoin="round"/>
<path d="M958.215 1624.73L953.184 1611.47L950.698 1612.41C945.663 1614.32 943.131 1619.95 945.041 1624.99L946.614 1629.13L958.215 1624.73Z" stroke="#B1B1B5" stroke-width="1.77263" stroke-linejoin="round"/>
<path d="M888.188 1545.13L914.705 1535.06" stroke="white" stroke-width="1.77263" stroke-linecap="round"/>
<path d="M886.934 1541.81L913.451 1531.75" stroke="white" stroke-width="1.77263" stroke-linecap="round"/>
<rect x="1186.84" y="1523.68" width="53.179" height="101.04" transform="rotate(-41.3473 1186.84 1523.68)" fill="#287FFF" fill-opacity="0.2"/>
<rect x="1186.84" y="1523.68" width="53.179" height="101.04" transform="rotate(-41.3473 1186.84 1523.68)" stroke="#B1B1B5" stroke-width="3.54527" stroke-linejoin="round"/>
<rect x="1186.84" y="1523.68" width="26.5895" height="37.2253" transform="rotate(-41.3473 1186.84 1523.68)" stroke="#B1B1B5" stroke-width="3.54527" stroke-linejoin="round"/>
<rect x="1230.32" y="1570.41" width="28.3621" height="24.8169" transform="rotate(-41.3473 1230.32 1570.41)" stroke="#B1B1B5" stroke-width="1.77263" stroke-linejoin="round"/>
<rect x="1223.3" y="1562.43" width="5.3179" height="10.6358" transform="rotate(-41.3473 1223.3 1562.43)" stroke="#B1B1B5" stroke-width="1.77263" stroke-linejoin="round"/>
<rect x="1246.72" y="1589.04" width="5.3179" height="10.6358" transform="rotate(-41.3473 1246.72 1589.04)" stroke="#B1B1B5" stroke-width="1.77263" stroke-linejoin="round"/>
<path d="M1224.36 1526.07L1233.68 1517.88L1233.09 1517.21C1229.54 1513.17 1223.38 1512.78 1219.33 1516.33L1217.34 1518.09L1224.36 1526.07Z" stroke="#B1B1B5" stroke-width="1.77263" stroke-linejoin="round"/>
<path d="M1224.09 1490.89L1233.46 1501.53L1231.47 1503.29C1227.42 1506.85 1221.26 1506.46 1217.71 1502.41L1214.78 1499.09L1224.09 1490.89Z" stroke="#B1B1B5" stroke-width="1.77263" stroke-linejoin="round"/>
<path d="M1261.73 1590L1283.03 1571.27" stroke="#BED0E9" stroke-width="1.77263" stroke-linecap="round"/>
<path d="M1264.07 1592.66L1285.36 1573.93" stroke="white" stroke-width="1.77263" stroke-linecap="round"/>
<rect x="968.926" y="1678.05" width="53.179" height="101.04" transform="rotate(-20.8187 968.926 1678.05)" stroke="#B1B1B5" stroke-width="3.54527" stroke-linejoin="round"/>
<rect x="968.926" y="1678.05" width="26.5895" height="37.2253" transform="rotate(-20.8187 968.926 1678.05)" stroke="#B1B1B5" stroke-width="3.54527" stroke-linejoin="round"/>
<rect x="993.262" y="1737.06" width="28.3621" height="24.8169" transform="rotate(-20.8187 993.262 1737.06)" stroke="#B1B1B5" stroke-width="1.77263" stroke-linejoin="round"/>
<rect x="989.48" y="1727.12" width="5.3179" height="10.6358" transform="rotate(-20.8187 989.48 1727.12)" stroke="#B1B1B5" stroke-width="1.77263" stroke-linejoin="round"/>
<rect x="1002.09" y="1760.26" width="5.3179" height="10.6358" transform="rotate(-20.8187 1002.09 1760.26)" stroke="#B1B1B5" stroke-width="1.77263" stroke-linejoin="round"/>
<path d="M1003.23 1693.45L1014.83 1689.04L1014.52 1688.21C1012.6 1683.18 1006.97 1680.65 1001.94 1682.56L999.454 1683.51L1003.23 1693.45Z" stroke="#B1B1B5" stroke-width="1.77263" stroke-linejoin="round"/>
<path d="M1015.32 1660.41L1020.36 1673.66L1017.87 1674.61C1012.84 1676.52 1007.21 1673.99 1005.29 1668.96L1003.72 1664.82L1015.32 1660.41Z" stroke="#B1B1B5" stroke-width="1.77263" stroke-linejoin="round"/>
<path d="M1015.8 1766.42L1042.32 1756.34" stroke="white" stroke-width="1.77263" stroke-linecap="round"/>
<path d="M1017.06 1769.74L1043.57 1759.66" stroke="white" stroke-width="1.77263" stroke-linecap="round"/>
<rect width="53.179" height="101.04" transform="matrix(0.751404 -0.659843 -0.659843 -0.751404 1109.28 1530.47)" stroke="#B1B1B5" stroke-width="3.54527" stroke-linejoin="round"/>
<rect width="26.5895" height="37.2253" transform="matrix(0.751404 -0.659843 -0.659843 -0.751404 1109.28 1530.47)" stroke="#B1B1B5" stroke-width="3.54527" stroke-linejoin="round"/>
<rect width="28.3621" height="24.8169" transform="matrix(0.751404 -0.659843 -0.659843 -0.751404 1068.5 1481.35)" stroke="#B1B1B5" stroke-width="1.77263" stroke-linejoin="round"/>
<rect width="5.3179" height="10.6358" transform="matrix(0.751404 -0.659843 -0.659843 -0.751404 1075.52 1489.34)" stroke="#B1B1B5" stroke-width="1.77263" stroke-linejoin="round"/>
<rect width="5.3179" height="10.6358" transform="matrix(0.751404 -0.659843 -0.659843 -0.751404 1052.13 1462.7)" stroke="#B1B1B5" stroke-width="1.77263" stroke-linejoin="round"/>
<path d="M1111.71 1492.95L1121.04 1484.76L1121.62 1485.43C1125.18 1489.47 1124.78 1495.63 1120.73 1499.19L1118.73 1500.94L1111.71 1492.95Z" stroke="#B1B1B5" stroke-width="1.77263" stroke-linejoin="round"/>
<path d="M1146.57 1497.72L1137.22 1487.07L1135.22 1488.82C1131.17 1492.37 1130.77 1498.53 1134.33 1502.58L1137.25 1505.91L1146.57 1497.72Z" stroke="#B1B1B5" stroke-width="1.77263" stroke-linejoin="round"/>
<path d="M1053.1 1447.7L1074.41 1428.98" stroke="white" stroke-width="1.77263" stroke-linecap="round"/>
<path d="M1050.76 1445.03L1072.07 1426.32" stroke="white" stroke-width="1.77263" stroke-linecap="round"/>
<rect x="1106.98" y="1593.94" width="53.179" height="101.04" transform="rotate(-41.3473 1106.98 1593.94)" stroke="#B1B1B5" stroke-width="3.54527" stroke-linejoin="round"/>
<rect x="1106.98" y="1593.94" width="26.5895" height="37.2253" transform="rotate(-41.3473 1106.98 1593.94)" stroke="#B1B1B5" stroke-width="3.54527" stroke-linejoin="round"/>
<rect x="1150.46" y="1640.68" width="28.3621" height="24.8169" transform="rotate(-41.3473 1150.46 1640.68)" stroke="#B1B1B5" stroke-width="1.77263" stroke-linejoin="round"/>
<rect x="1143.44" y="1632.69" width="5.3179" height="10.6358" transform="rotate(-41.3473 1143.44 1632.69)" stroke="#B1B1B5" stroke-width="1.77263" stroke-linejoin="round"/>
<rect x="1166.87" y="1659.31" width="5.3179" height="10.6358" transform="rotate(-41.3473 1166.87 1659.31)" stroke="#B1B1B5" stroke-width="1.77263" stroke-linejoin="round"/>
<path d="M1144.51 1596.34L1153.82 1588.14L1153.24 1587.47C1149.68 1583.43 1143.52 1583.04 1139.48 1586.59L1137.48 1588.35L1144.51 1596.34Z" stroke="#B1B1B5" stroke-width="1.77263" stroke-linejoin="round"/>
<path d="M1144.25 1561.15L1153.61 1571.8L1151.62 1573.55C1147.58 1577.11 1141.42 1576.72 1137.86 1572.68L1134.93 1569.35L1144.25 1561.15Z" stroke="#B1B1B5" stroke-width="1.77263" stroke-linejoin="round"/>
<path d="M1181.88 1660.26L1203.17 1641.53" stroke="white" stroke-width="1.77263" stroke-linecap="round"/>
<path d="M1184.22 1662.93L1205.51 1644.19" stroke="white" stroke-width="1.77263" stroke-linecap="round"/>
<rect x="770.094" y="1753.65" width="53.179" height="101.04" transform="rotate(-20.8187 770.094 1753.65)" stroke="#B1B1B5" stroke-width="3.54527" stroke-linejoin="round"/>
<rect x="770.094" y="1753.65" width="26.5895" height="37.2253" transform="rotate(-20.8187 770.094 1753.65)" stroke="#B1B1B5" stroke-width="3.54527" stroke-linejoin="round"/>
<rect x="790.656" y="1802.72" width="5.3179" height="10.6358" transform="rotate(-20.8187 790.656 1802.72)" stroke="#B1B1B5" stroke-width="1.77263" stroke-linejoin="round"/>
<path d="M804.406 1769.05L816.005 1764.64L815.69 1763.81C813.776 1758.78 808.144 1756.25 803.112 1758.16L800.626 1759.11L804.406 1769.05Z" stroke="#B1B1B5" stroke-width="1.77263" stroke-linejoin="round"/>
<path d="M816.488 1736.01L821.528 1749.26L819.043 1750.21C814.01 1752.12 808.379 1749.59 806.465 1744.56L804.89 1740.42L816.488 1736.01Z" stroke="#B1B1B5" stroke-width="1.77263" stroke-linejoin="round"/>
<rect x="1189.2" y="1460.3" width="53.179" height="101.04" transform="rotate(138.712 1189.2 1460.3)" stroke="#B1B1B5" stroke-width="3.54527" stroke-linejoin="round"/>
<rect x="1189.2" y="1460.3" width="26.5895" height="37.2253" transform="rotate(138.712 1189.2 1460.3)" stroke="#B1B1B5" stroke-width="3.54527" stroke-linejoin="round"/>
<rect x="1145.76" y="1413.52" width="28.3621" height="24.8169" transform="rotate(138.712 1145.76 1413.52)" stroke="#B1B1B5" stroke-width="1.77263" stroke-linejoin="round"/>
<rect x="1152.78" y="1421.51" width="5.3179" height="10.6358" transform="rotate(138.712 1152.78 1421.51)" stroke="#B1B1B5" stroke-width="1.77263" stroke-linejoin="round"/>
<rect x="1129.38" y="1394.87" width="5.3179" height="10.6358" transform="rotate(138.712 1129.38 1394.87)" stroke="#B1B1B5" stroke-width="1.77263" stroke-linejoin="round"/>
<path d="M1151.67 1457.87L1142.34 1466.06L1142.93 1466.72C1146.48 1470.77 1152.64 1471.17 1156.69 1467.62L1158.69 1465.86L1151.67 1457.87Z" stroke="#B1B1B5" stroke-width="1.77263" stroke-linejoin="round"/>
<path d="M1151.9 1493.05L1142.55 1482.4L1144.54 1480.64C1148.59 1477.09 1154.75 1477.49 1158.3 1481.53L1161.23 1484.86L1151.9 1493.05Z" stroke="#B1B1B5" stroke-width="1.77263" stroke-linejoin="round"/>
<path d="M1114.37 1393.9L1093.06 1412.61" stroke="white" stroke-width="1.77263" stroke-linecap="round"/>
<path d="M1112.03 1391.24L1090.72 1409.95" stroke="white" stroke-width="1.77263" stroke-linecap="round"/>
<rect x="1469.37" y="1386.09" width="53.179" height="101.04" transform="rotate(-172.551 1469.37 1386.09)" stroke="#B1B1B5" stroke-width="3.54527" stroke-linejoin="round"/>
<rect x="1469.37" y="1386.09" width="26.5895" height="37.2253" transform="rotate(-172.551 1469.37 1386.09)" stroke="#B1B1B5" stroke-width="3.54527" stroke-linejoin="round"/>
<path d="M1446.45 1356.27L1434.14 1354.66L1434.03 1355.54C1433.33 1360.88 1437.09 1365.78 1442.43 1366.47L1445.07 1366.82L1446.45 1356.27Z" stroke="#B1B1B5" stroke-width="1.77263" stroke-linejoin="round"/>
<path d="M1420.16 1379.65L1421.99 1365.59L1424.63 1365.93C1429.97 1366.63 1433.73 1371.53 1433.03 1376.87L1432.46 1381.26L1420.16 1379.65Z" stroke="#B1B1B5" stroke-width="1.77263" stroke-linejoin="round"/>
<rect x="812.203" y="1680.12" width="53.179" height="101.04" transform="rotate(159.22 812.203 1680.12)" stroke="#B1B1B5" stroke-width="3.54527" stroke-linejoin="round"/>
<rect x="812.203" y="1680.12" width="26.5895" height="37.2253" transform="rotate(159.22 812.203 1680.12)" stroke="#B1B1B5" stroke-width="3.54527" stroke-linejoin="round"/>
<rect x="787.914" y="1621.09" width="28.3621" height="24.8169" transform="rotate(159.22 787.914 1621.09)" stroke="#B1B1B5" stroke-width="1.77263" stroke-linejoin="round"/>
<rect x="791.684" y="1631.03" width="5.3179" height="10.6358" transform="rotate(159.22 791.684 1631.03)" stroke="#B1B1B5" stroke-width="1.77263" stroke-linejoin="round"/>
<rect x="779.105" y="1597.88" width="5.3179" height="10.6358" transform="rotate(159.22 779.105 1597.88)" stroke="#B1B1B5" stroke-width="1.77263" stroke-linejoin="round"/>
<path d="M777.906 1664.7L766.305 1669.1L766.619 1669.93C768.53 1674.96 774.159 1677.5 779.194 1675.59L781.68 1674.64L777.906 1664.7Z" stroke="#B1B1B5" stroke-width="1.77263" stroke-linejoin="round"/>
<path d="M765.801 1697.73L760.77 1684.47L763.256 1683.53C768.29 1681.62 773.92 1684.15 775.83 1689.19L777.402 1693.33L765.801 1697.73Z" stroke="#B1B1B5" stroke-width="1.77263" stroke-linejoin="round"/>
<path d="M765.387 1591.72L738.87 1601.78" stroke="white" stroke-width="1.77263" stroke-linecap="round"/>
<path d="M764.125 1588.4L737.608 1598.46" stroke="white" stroke-width="1.77263" stroke-linecap="round"/>
<rect x="1269.24" y="1390.01" width="53.179" height="101.04" transform="rotate(138.712 1269.24 1390.01)" stroke="#B1B1B5" stroke-width="3.54527" stroke-linejoin="round"/>
<rect x="1269.24" y="1390.01" width="26.5895" height="37.2253" transform="rotate(138.712 1269.24 1390.01)" stroke="#B1B1B5" stroke-width="3.54527" stroke-linejoin="round"/>
<rect x="1225.81" y="1343.22" width="28.3621" height="24.8169" transform="rotate(138.712 1225.81 1343.22)" stroke="#B1B1B5" stroke-width="1.77263" stroke-linejoin="round"/>
<path d="M1231.71 1387.58L1222.39 1395.76L1222.98 1396.43C1226.53 1400.48 1232.69 1400.88 1236.73 1397.32L1238.73 1395.57L1231.71 1387.58Z" stroke="#B1B1B5" stroke-width="1.77263" stroke-linejoin="round"/>
<path d="M1231.95 1422.76L1222.59 1412.1L1224.59 1410.35C1228.64 1406.79 1234.8 1407.19 1238.35 1411.24L1241.27 1414.57L1231.95 1422.76Z" stroke="#B1B1B5" stroke-width="1.77263" stroke-linejoin="round"/>
<rect x="1575" y="1399.9" width="53.179" height="101.04" transform="rotate(-172.551 1575 1399.9)" stroke="#B1B1B5" stroke-width="3.54527" stroke-linejoin="round"/>
<rect x="1575" y="1399.9" width="26.5895" height="37.2253" transform="rotate(-172.551 1575 1399.9)" stroke="#B1B1B5" stroke-width="3.54527" stroke-linejoin="round"/>
<path d="M1552.07 1370.08L1539.77 1368.48L1539.66 1369.35C1538.96 1374.69 1542.72 1379.59 1548.06 1380.29L1550.7 1380.63L1552.07 1370.08Z" stroke="#B1B1B5" stroke-width="1.77263" stroke-linejoin="round"/>
<path d="M1525.79 1393.46L1527.62 1379.4L1530.26 1379.75C1535.6 1380.44 1539.36 1385.34 1538.66 1390.68L1538.09 1395.07L1525.79 1393.46Z" stroke="#B1B1B5" stroke-width="1.77263" stroke-linejoin="round"/>
<rect x="911.805" y="1642.33" width="53.179" height="101.04" transform="rotate(159.22 911.805 1642.33)" stroke="#B1B1B5" stroke-width="3.54527" stroke-linejoin="round"/>
<rect x="911.805" y="1642.33" width="26.5895" height="37.2253" transform="rotate(159.22 911.805 1642.33)" stroke="#B1B1B5" stroke-width="3.54527" stroke-linejoin="round"/>
<rect x="887.516" y="1583.29" width="28.3621" height="24.8169" transform="rotate(159.22 887.516 1583.29)" stroke="#B1B1B5" stroke-width="1.77263" stroke-linejoin="round"/>
<rect x="891.285" y="1593.24" width="5.3179" height="10.6358" transform="rotate(159.22 891.285 1593.24)" stroke="#B1B1B5" stroke-width="1.77263" stroke-linejoin="round"/>
<rect x="878.707" y="1560.09" width="5.3179" height="10.6358" transform="rotate(159.22 878.707 1560.09)" stroke="#B1B1B5" stroke-width="1.77263" stroke-linejoin="round"/>
<path d="M877.508 1626.9L865.907 1631.31L866.221 1632.13C868.131 1637.17 873.761 1639.7 878.795 1637.79L881.281 1636.85L877.508 1626.9Z" stroke="#B1B1B5" stroke-width="1.77263" stroke-linejoin="round"/>
<path d="M865.402 1659.94L860.371 1646.68L862.857 1645.74C867.891 1643.83 873.521 1646.36 875.431 1651.39L877.004 1655.54L865.402 1659.94Z" stroke="#B1B1B5" stroke-width="1.77263" stroke-linejoin="round"/>
<path d="M864.988 1553.92L838.471 1563.98" stroke="white" stroke-width="1.77263" stroke-linecap="round"/>
<path d="M863.727 1550.61L837.209 1560.67" stroke="white" stroke-width="1.77263" stroke-linecap="round"/>
<rect width="53.179" height="101.04" transform="matrix(-0.750719 0.660622 0.660622 0.750719 1186.84 1523.68)" stroke="#B1B1B5" stroke-width="3.54527" stroke-linejoin="round"/>
<rect width="26.5895" height="37.2253" transform="matrix(-0.750719 0.660622 0.660622 0.750719 1186.84 1523.68)" stroke="#B1B1B5" stroke-width="3.54527" stroke-linejoin="round"/>
<rect width="28.3621" height="24.8169" transform="matrix(-0.750719 0.660622 0.660622 0.750719 1227.66 1572.76)" stroke="#B1B1B5" stroke-width="1.77263" stroke-linejoin="round"/>
<rect width="5.3179" height="10.6358" transform="matrix(-0.750719 0.660622 0.660622 0.750719 1220.63 1564.77)" stroke="#B1B1B5" stroke-width="1.77263" stroke-linejoin="round"/>
<rect width="5.3179" height="10.6358" transform="matrix(-0.750719 0.660622 0.660622 0.750719 1244.05 1591.39)" stroke="#B1B1B5" stroke-width="1.77263" stroke-linejoin="round"/>
<path d="M1184.44 1561.2L1175.13 1569.4L1174.54 1568.74C1170.98 1564.69 1171.38 1558.53 1175.42 1554.98L1177.42 1553.22L1184.44 1561.2Z" stroke="#B1B1B5" stroke-width="1.77263" stroke-linejoin="round"/>
<path d="M1149.57 1556.47L1158.94 1567.11L1160.93 1565.36C1164.98 1561.8 1165.37 1555.64 1161.81 1551.6L1158.89 1548.27L1149.57 1556.47Z" stroke="#B1B1B5" stroke-width="1.77263" stroke-linejoin="round"/>
<path d="M1243.09 1606.4L1221.8 1625.13" stroke="white" stroke-width="1.77263" stroke-linecap="round"/>
<path d="M1245.44 1609.06L1224.15 1627.8" stroke="white" stroke-width="1.77263" stroke-linecap="round"/>
<rect width="53.179" height="101.04" transform="matrix(-0.93471 0.355411 0.355411 0.93471 869.512 1715.85)" stroke="#B1B1B5" stroke-width="3.54527" stroke-linejoin="round"/>
<rect width="26.5895" height="37.2253" transform="matrix(-0.93471 0.355411 0.355411 0.93471 869.512 1715.85)" stroke="#B1B1B5" stroke-width="3.54527" stroke-linejoin="round"/>
<rect width="28.3621" height="24.8169" transform="matrix(-0.93471 0.355411 0.355411 0.93471 890.535 1776.12)" stroke="#B1B1B5" stroke-width="1.77263" stroke-linejoin="round"/>
<rect width="5.3179" height="10.6358" transform="matrix(-0.93471 0.355411 0.355411 0.93471 886.75 1766.18)" stroke="#B1B1B5" stroke-width="1.77263" stroke-linejoin="round"/>
<rect width="5.3179" height="10.6358" transform="matrix(-0.93471 0.355411 0.355411 0.93471 899.352 1799.32)" stroke="#B1B1B5" stroke-width="1.77263" stroke-linejoin="round"/>
<path d="M854.102 1750.15L842.503 1754.56L842.188 1753.73C840.275 1748.7 842.803 1743.07 847.836 1741.15L850.321 1740.21L854.102 1750.15Z" stroke="#B1B1B5" stroke-width="1.77263" stroke-linejoin="round"/>
<path d="M823.117 1733.49L828.157 1746.74L830.643 1745.8C835.676 1743.88 838.204 1738.25 836.291 1733.22L834.715 1729.08L823.117 1733.49Z" stroke="#B1B1B5" stroke-width="1.77263" stroke-linejoin="round"/>
<rect width="53.179" height="101.04" transform="matrix(-0.93471 0.355411 0.355411 0.93471 968.926 1678.05)" stroke="#B1B1B5" stroke-width="3.54527" stroke-linejoin="round"/>
<rect width="26.5895" height="37.2253" transform="matrix(-0.93471 0.355411 0.355411 0.93471 968.926 1678.05)" stroke="#B1B1B5" stroke-width="3.54527" stroke-linejoin="round"/>
<rect width="28.3621" height="24.8169" transform="matrix(-0.93471 0.355411 0.355411 0.93471 989.953 1738.32)" stroke="#B1B1B5" stroke-width="1.77263" stroke-linejoin="round"/>
<rect width="5.3179" height="10.6358" transform="matrix(-0.93471 0.355411 0.355411 0.93471 986.164 1728.38)" stroke="#B1B1B5" stroke-width="1.77263" stroke-linejoin="round"/>
<rect width="5.3179" height="10.6358" transform="matrix(-0.93471 0.355411 0.355411 0.93471 998.766 1761.52)" stroke="#B1B1B5" stroke-width="1.77263" stroke-linejoin="round"/>
<path d="M953.523 1712.35L941.925 1716.76L941.61 1715.93C939.696 1710.9 942.225 1705.27 947.258 1703.35L949.743 1702.41L953.523 1712.35Z" stroke="#B1B1B5" stroke-width="1.77263" stroke-linejoin="round"/>
<path d="M922.531 1695.69L927.571 1708.94L930.057 1708C935.09 1706.08 937.618 1700.45 935.705 1695.42L934.13 1691.28L922.531 1695.69Z" stroke="#B1B1B5" stroke-width="1.77263" stroke-linejoin="round"/>
<path d="M992.609 1775.24L966.099 1785.32" stroke="white" stroke-width="1.77263" stroke-linecap="round"/>
<path d="M993.867 1778.56L967.357 1788.64" stroke="white" stroke-width="1.77263" stroke-linecap="round"/>
<rect width="53.179" height="101.04" transform="matrix(-0.750719 0.660622 0.660622 0.750719 1106.98 1593.94)" stroke="#B1B1B5" stroke-width="3.54527" stroke-linejoin="round"/>
<rect width="26.5895" height="37.2253" transform="matrix(-0.750719 0.660622 0.660622 0.750719 1106.98 1593.94)" stroke="#B1B1B5" stroke-width="3.54527" stroke-linejoin="round"/>
<rect width="28.3621" height="24.8169" transform="matrix(-0.750719 0.660622 0.660622 0.750719 1147.81 1643.02)" stroke="#B1B1B5" stroke-width="1.77263" stroke-linejoin="round"/>
<rect width="5.3179" height="10.6358" transform="matrix(-0.750719 0.660622 0.660622 0.750719 1140.78 1635.03)" stroke="#B1B1B5" stroke-width="1.77263" stroke-linejoin="round"/>
<rect width="5.3179" height="10.6358" transform="matrix(-0.750719 0.660622 0.660622 0.750719 1164.2 1661.65)" stroke="#B1B1B5" stroke-width="1.77263" stroke-linejoin="round"/>
<path d="M1104.59 1631.47L1095.27 1639.66L1094.69 1639C1091.13 1634.96 1091.52 1628.8 1095.56 1625.24L1097.56 1623.48L1104.59 1631.47Z" stroke="#B1B1B5" stroke-width="1.77263" stroke-linejoin="round"/>
<path d="M1069.72 1626.73L1079.09 1637.38L1081.08 1635.62C1085.13 1632.06 1085.52 1625.9 1081.96 1621.86L1079.03 1618.53L1069.72 1626.73Z" stroke="#B1B1B5" stroke-width="1.77263" stroke-linejoin="round"/>
<path d="M1163.25 1676.66L1141.95 1695.4" stroke="white" stroke-width="1.77263" stroke-linecap="round"/>
<path d="M1165.59 1679.32L1144.29 1698.06" stroke="white" stroke-width="1.77263" stroke-linecap="round"/>
<rect width="53.179" height="101.04" transform="matrix(-0.93471 0.355411 0.355411 0.93471 770.094 1753.65)" stroke="#B1B1B5" stroke-width="3.54527" stroke-linejoin="round"/>
<rect width="26.5895" height="37.2253" transform="matrix(-0.93471 0.355411 0.355411 0.93471 770.094 1753.65)" stroke="#B1B1B5" stroke-width="3.54527" stroke-linejoin="round"/>
<path d="M754.691 1787.95L743.093 1792.36L742.778 1791.53C740.864 1786.5 743.393 1780.87 748.426 1778.95L750.911 1778.01L754.691 1787.95Z" stroke="#B1B1B5" stroke-width="1.77263" stroke-linejoin="round"/>
<rect x="869.512" y="1715.84" width="53.179" height="101.04" transform="rotate(-20.8154 869.512 1715.84)" stroke="#B1B1B5" stroke-width="3.54527" stroke-linejoin="round"/>
<path d="M915.906 1698.21L920.946 1711.46L918.46 1712.41C913.427 1714.32 907.796 1711.79 905.883 1706.76L904.308 1702.62L915.906 1698.21Z" stroke="#B1B1B5" stroke-width="1.77263" stroke-linejoin="round"/>
<rect x="869.512" y="1715.84" width="26.5895" height="37.2253" transform="rotate(-20.8154 869.512 1715.84)" stroke="#B1B1B5" stroke-width="3.54527" stroke-linejoin="round"/>
<rect x="893.844" y="1774.86" width="28.3621" height="24.8169" transform="rotate(-20.8154 893.844 1774.86)" stroke="#B1B1B5" stroke-width="1.77263" stroke-linejoin="round"/>
<rect x="890.062" y="1764.92" width="5.3179" height="10.6358" transform="rotate(-20.8154 890.062 1764.92)" stroke="#B1B1B5" stroke-width="1.77263" stroke-linejoin="round"/>
<rect x="902.656" y="1798.06" width="5.3179" height="10.6358" transform="rotate(-20.8154 902.656 1798.06)" stroke="#B1B1B5" stroke-width="1.77263" stroke-linejoin="round"/>
<path d="M903.809 1731.25L915.407 1726.84L915.092 1726.01C913.179 1720.98 907.548 1718.45 902.514 1720.36L900.029 1721.31L903.809 1731.25Z" stroke="#B1B1B5" stroke-width="1.77263" stroke-linejoin="round"/>
<path d="M916.383 1804.22L942.894 1794.14" stroke="white" stroke-width="1.77263" stroke-linecap="round"/>
<path d="M917.641 1807.54L944.152 1797.46" stroke="white" stroke-width="1.77263" stroke-linecap="round"/>
<rect x="1186.85" y="1523.53" width="53.179" height="101.04" transform="rotate(-41.4652 1186.85 1523.53)" stroke="#287FFF" stroke-width="3.54527" stroke-linejoin="round"/>
<circle cx="1186.79" cy="1523.29" r="4.43158" transform="rotate(-21.9452 1186.79 1523.29)" fill="#287FFF"/>
<circle cx="1253.81" cy="1599.49" r="4.43158" transform="rotate(-21.9452 1253.81 1599.49)" fill="#287FFF"/>
<circle cx="1226.21" cy="1488.3" r="4.43158" transform="rotate(-21.9452 1226.21 1488.3)" fill="#287FFF"/>
<circle cx="1293.22" cy="1564.5" r="4.43158" transform="rotate(-21.9452 1293.22 1564.5)" fill="#287FFF"/>
<path d="M477.421 1836.77L701.948 1831.69L1074.63 1689.69L1324.9 1465.94L1891.12 1544.79" stroke="#287FFF" stroke-width="3.54527" stroke-linecap="round" stroke-dasharray="10.64 21.27"/>
<path d="M410.42 1701.77L634.948 1696.69L1007.63 1554.69L1285.13 1312L1715.64 1367.5" stroke="#287FFF" stroke-width="3.54527" stroke-linecap="round" stroke-dasharray="10.64 21.27"/>
<rect x="1109.27" y="1530.47" width="53.179" height="101.04" transform="rotate(138.712 1109.27 1530.47)" stroke="#B1B1B5" stroke-width="3.54527" stroke-linejoin="round"/>
<rect x="1109.27" y="1530.47" width="26.5895" height="37.2253" transform="rotate(138.712 1109.27 1530.47)" stroke="#B1B1B5" stroke-width="3.54527" stroke-linejoin="round"/>
<rect x="1065.83" y="1483.68" width="28.3621" height="24.8169" transform="rotate(138.712 1065.83 1483.68)" stroke="#B1B1B5" stroke-width="1.77263" stroke-linejoin="round"/>
<rect x="1072.85" y="1491.68" width="5.3179" height="10.6358" transform="rotate(138.712 1072.85 1491.68)" stroke="#B1B1B5" stroke-width="1.77263" stroke-linejoin="round"/>
<rect x="1049.46" y="1465.03" width="5.3179" height="10.6358" transform="rotate(138.712 1049.46 1465.03)" stroke="#B1B1B5" stroke-width="1.77263" stroke-linejoin="round"/>
<path d="M1071.74 1528.03L1062.41 1536.22L1063 1536.89C1066.55 1540.93 1072.71 1541.33 1076.76 1537.78L1078.76 1536.03L1071.74 1528.03Z" stroke="#B1B1B5" stroke-width="1.77263" stroke-linejoin="round"/>
<path d="M1071.98 1563.21L1062.62 1552.56L1064.62 1550.8C1068.66 1547.25 1074.82 1547.65 1078.38 1551.7L1081.3 1555.03L1071.98 1563.21Z" stroke="#B1B1B5" stroke-width="1.77263" stroke-linejoin="round"/>
<path d="M1034.45 1464.06L1013.13 1482.78" stroke="white" stroke-width="1.77263" stroke-linecap="round"/>
<path d="M1032.11 1461.4L1010.79 1480.11" stroke="white" stroke-width="1.77263" stroke-linecap="round"/>
<rect x="1519.55" y="1443.93" width="53.179" height="101.04" transform="rotate(7.89936 1519.55 1443.93)" stroke="#B1B1B5" stroke-width="3.54527" stroke-linejoin="round"/>
<rect x="1519.55" y="1443.93" width="26.5895" height="37.2253" transform="rotate(7.89936 1519.55 1443.93)" stroke="#B1B1B5" stroke-width="3.54527" stroke-linejoin="round"/>
<rect x="1512.54" y="1507.39" width="28.3621" height="24.8169" transform="rotate(7.89936 1512.54 1507.39)" stroke="#B1B1B5" stroke-width="1.77263" stroke-linejoin="round"/>
<rect x="1514.01" y="1496.85" width="5.3179" height="10.6358" transform="rotate(7.89936 1514.01 1496.85)" stroke="#B1B1B5" stroke-width="1.77263" stroke-linejoin="round"/>
<rect x="1509.12" y="1531.97" width="5.3179" height="10.6358" transform="rotate(7.89936 1509.12 1531.97)" stroke="#B1B1B5" stroke-width="1.77263" stroke-linejoin="round"/>
<path d="M1542.24 1473.92L1554.53 1475.63L1554.65 1474.75C1555.39 1469.42 1551.67 1464.49 1546.33 1463.75L1543.7 1463.39L1542.24 1473.92Z" stroke="#B1B1B5" stroke-width="1.77263" stroke-linejoin="round"/>
<path d="M1518.2 1543.96L1546.29 1547.86" stroke="white" stroke-width="1.77263" stroke-linecap="round"/>
<path d="M1517.71 1547.48L1545.8 1551.37" stroke="white" stroke-width="1.77263" stroke-linecap="round"/>
<rect x="1414.2" y="1429.31" width="53.179" height="101.04" transform="rotate(7.89936 1414.2 1429.31)" stroke="#B1B1B5" stroke-width="3.54527" stroke-linejoin="round"/>
<rect x="1414.2" y="1429.31" width="26.5895" height="37.2253" transform="rotate(7.89936 1414.2 1429.31)" stroke="#B1B1B5" stroke-width="3.54527" stroke-linejoin="round"/>
<rect x="1407.18" y="1492.77" width="28.3621" height="24.8169" transform="rotate(7.89936 1407.18 1492.77)" stroke="#B1B1B5" stroke-width="1.77263" stroke-linejoin="round"/>
<rect x="1408.65" y="1482.23" width="5.3179" height="10.6358" transform="rotate(7.89936 1408.65 1482.23)" stroke="#B1B1B5" stroke-width="1.77263" stroke-linejoin="round"/>
<rect x="1403.77" y="1517.35" width="5.3179" height="10.6358" transform="rotate(7.89936 1403.77 1517.35)" stroke="#B1B1B5" stroke-width="1.77263" stroke-linejoin="round"/>
<path d="M1436.88 1459.3L1449.17 1461.01L1449.3 1460.13C1450.04 1454.8 1446.31 1449.87 1440.98 1449.13L1438.34 1448.77L1436.88 1459.3Z" stroke="#B1B1B5" stroke-width="1.77263" stroke-linejoin="round"/>
<path d="M1463.36 1436.13L1461.41 1450.18L1458.78 1449.82C1453.44 1449.08 1449.72 1444.15 1450.46 1438.82L1451.07 1434.43L1463.36 1436.13Z" stroke="#B1B1B5" stroke-width="1.77263" stroke-linejoin="round"/>
<path d="M1412.84 1529.34L1440.94 1533.24" stroke="white" stroke-width="1.77263" stroke-linecap="round"/>
<path d="M1412.36 1532.86L1440.45 1536.75" stroke="white" stroke-width="1.77263" stroke-linecap="round"/>
<rect width="53.179" height="101.04" transform="matrix(-0.990511 -0.137433 -0.137433 0.990511 1519.55 1443.93)" stroke="#B1B1B5" stroke-width="3.54527" stroke-linejoin="round"/>
<rect width="26.5895" height="37.2253" transform="matrix(-0.990511 -0.137433 -0.137433 0.990511 1519.55 1443.93)" stroke="#B1B1B5" stroke-width="3.54527" stroke-linejoin="round"/>
<rect width="28.3621" height="24.8169" transform="matrix(-0.990511 -0.137433 -0.137433 0.990511 1509.03 1506.9)" stroke="#B1B1B5" stroke-width="1.77263" stroke-linejoin="round"/>
<rect width="5.3179" height="10.6358" transform="matrix(-0.990511 -0.137433 -0.137433 0.990511 1510.49 1496.36)" stroke="#B1B1B5" stroke-width="1.77263" stroke-linejoin="round"/>
<rect width="5.3179" height="10.6358" transform="matrix(-0.990511 -0.137433 -0.137433 0.990511 1505.62 1531.48)" stroke="#B1B1B5" stroke-width="1.77263" stroke-linejoin="round"/>
<path d="M1489.57 1466.62L1477.28 1464.91L1477.4 1464.03C1478.14 1458.7 1483.06 1454.97 1488.39 1455.71L1491.03 1456.08L1489.57 1466.62Z" stroke="#B1B1B5" stroke-width="1.77263" stroke-linejoin="round"/>
<path d="M1470.39 1437.11L1468.44 1451.16L1471.07 1451.52C1476.4 1452.26 1481.33 1448.54 1482.07 1443.21L1482.68 1438.82L1470.39 1437.11Z" stroke="#B1B1B5" stroke-width="1.77263" stroke-linejoin="round"/>
<path d="M1493.62 1540.55L1465.53 1536.65" stroke="white" stroke-width="1.77263" stroke-linecap="round"/>
<path d="M1493.13 1544.06L1465.04 1540.17" stroke="white" stroke-width="1.77263" stroke-linecap="round"/>
<rect width="53.179" height="101.04" transform="matrix(-0.990511 -0.137433 -0.137433 0.990511 1414.2 1429.31)" stroke="#B1B1B5" stroke-width="3.54527" stroke-linejoin="round"/>
<rect width="26.5895" height="37.2253" transform="matrix(-0.990511 -0.137433 -0.137433 0.990511 1414.2 1429.31)" stroke="#B1B1B5" stroke-width="3.54527" stroke-linejoin="round"/>
<rect width="28.3621" height="24.8169" transform="matrix(-0.990511 -0.137433 -0.137433 0.990511 1403.68 1492.28)" stroke="#B1B1B5" stroke-width="1.77263" stroke-linejoin="round"/>
<rect width="5.3179" height="10.6358" transform="matrix(-0.990511 -0.137433 -0.137433 0.990511 1405.13 1481.74)" stroke="#B1B1B5" stroke-width="1.77263" stroke-linejoin="round"/>
<rect width="5.3179" height="10.6358" transform="matrix(-0.990511 -0.137433 -0.137433 0.990511 1400.26 1516.86)" stroke="#B1B1B5" stroke-width="1.77263" stroke-linejoin="round"/>
<path d="M1384.21 1452L1371.92 1450.29L1372.04 1449.41C1372.78 1444.08 1377.71 1440.36 1383.04 1441.1L1385.67 1441.46L1384.21 1452Z" stroke="#B1B1B5" stroke-width="1.77263" stroke-linejoin="round"/>
<path d="M1365.03 1422.49L1363.08 1436.54L1365.72 1436.9C1371.05 1437.64 1375.97 1433.92 1376.71 1428.59L1377.32 1424.2L1365.03 1422.49Z" stroke="#B1B1B5" stroke-width="1.77263" stroke-linejoin="round"/>
<path d="M1388.26 1525.93L1360.17 1522.04" stroke="white" stroke-width="1.77263" stroke-linecap="round"/>
<path d="M1387.77 1529.44L1359.68 1525.55" stroke="white" stroke-width="1.77263" stroke-linecap="round"/>
</g>
</g>
<path d="M724 1254.26C724 1245.28 731.281 1238 740.262 1238H1564.74C1573.72 1238 1581 1245.28 1581 1254.26V1304.53H724V1254.26Z" fill="#287FFF"/>
<circle cx="1547.46" cy="1272" r="11.8272" fill="#EFEFF0"/>
<circle cx="1509.03" cy="1272" r="11.8272" fill="#EFEFF0"/>
<circle cx="1470.59" cy="1272" r="11.8272" fill="#EFEFF0"/>
</g>
<path d="M548 1210C556.837 1210 564 1202.39 564 1193C564 1183.61 556.837 1176 548 1176" stroke="#727677" stroke-width="5"/>
<path d="M724 1500C715.163 1500 708 1507.61 708 1517C708 1526.39 715.163 1534 724 1534" stroke="#727677" stroke-width="5"/>
<path d="M564.5 1193C687 1193 554 1517.5 707 1517.5" stroke="#727677" stroke-width="5" stroke-linecap="round"/>
<rect x="211.5" y="1042.5" width="335" height="301" rx="12.5" fill="white"/>
<rect x="211.5" y="1042.5" width="335" height="301" rx="12.5" stroke="#727677" stroke-width="5"/>
<g clip-path="url(#clip4_1589_2304)">
<path d="M258 1171.46C258 1171.46 263.05 1179.29 275.131 1177.41C287.213 1175.52 322.295 1164 322.295 1164L390.897 1180.84C390.897 1180.84 359.171 1192.71 346.774 1208.21C334.378 1223.72 401.965 1217.49 436.111 1186.11L418.571 1227.23L436.111 1271.27" stroke="#505C87" stroke-width="7" stroke-linecap="round" stroke-linejoin="round"/>
<path d="M367.582 1149.36C367.582 1149.36 374.273 1156.28 377.75 1157.19C381.226 1158.1 394.282 1153.26 394.282 1153.26L408.119 1171.42C408.119 1171.42 421.762 1162.84 426.829 1160.59C431.896 1158.33 433.495 1143.34 436.71 1142.46C439.925 1141.57 458.012 1155.21 458.012 1155.21L456.452 1171.42L450.416 1176.61L468.146 1196.14L485.171 1194.7" stroke="#505C87" stroke-width="7" stroke-linecap="round" stroke-linejoin="round"/>
<path d="M466.957 1142.26L495.806 1128.2" stroke="#287FFF" stroke-width="7" stroke-linecap="round" stroke-linejoin="round"/>
<path d="M465.919 1098.19L452.242 1133.43" stroke="#287FFF" stroke-width="7" stroke-linecap="round" stroke-linejoin="round"/>
<path d="M407.34 1217.94C397.235 1224.57 375.378 1226.93 364.075 1230.44C356.126 1232.8 348.059 1234.75 339.908 1236.28L286.508 1288.52" stroke="#505C87" stroke-width="7" stroke-linecap="round" stroke-linejoin="round"/>
</g>
<defs>
<clipPath id="clip0_1589_2304">
<rect width="857" height="562" fill="white" transform="translate(724 1238)"/>
</clipPath>
<clipPath id="clip1_1589_2304">
<rect width="857" height="495.472" fill="white" transform="translate(724 1304.53)"/>
</clipPath>
<clipPath id="clip2_1589_2304">
<rect width="795" height="460" fill="white" transform="translate(755 1340)"/>
</clipPath>
<clipPath id="clip3_1589_2304">
<rect width="795" height="440" fill="white" transform="translate(755 1361)"/>
</clipPath>
<clipPath id="clip4_1589_2304">
<rect width="245" height="200.706" fill="white" transform="translate(256 1093)"/>
</clipPath>
</defs>
</svg>
