<svg width="1763" height="1360" viewBox="0 0 1763 1360" fill="none" xmlns="http://www.w3.org/2000/svg">
<circle cx="508" cy="753" r="18" fill="white"/>
<circle cx="689" cy="1078" r="18" fill="white"/>
<g clip-path="url(#clip0_1589_2304)">
<g clip-path="url(#clip1_1589_2304)">
<rect width="857" height="495.472" transform="translate(686 864.528)" fill="#DADADB"/>
<g clip-path="url(#clip2_1589_2304)">
<rect width="795" height="460" transform="translate(717 900)" fill="white"/>
<rect x="717" y="900" width="32" height="21" fill="#F0F0F0"/>
<path d="M731.5 904.5H724.5V909.5H731.5V904.5Z" stroke="#263238" stroke-miterlimit="10" stroke-linecap="round" stroke-linejoin="round"/>
<path d="M741.5 904.5H734.5V909.5H741.5V904.5Z" stroke="#263238" stroke-miterlimit="10" stroke-linecap="round" stroke-linejoin="round"/>
<path d="M731.5 912.5H724.5V917.5H731.5V912.5Z" stroke="#263238" stroke-miterlimit="10" stroke-linecap="round" stroke-linejoin="round"/>
<path d="M741.5 912.5H734.5V917.5H741.5V912.5Z" stroke="#263238" stroke-miterlimit="10" stroke-linecap="round" stroke-linejoin="round"/>
<rect x="749" y="900" width="191" height="21" fill="white"/>
<path d="M844.5 904.5C844.5 904 844.1 903.5 843.5 903.5H837.5C836.9 903.5 836.5 904 836.5 904.5V916.5C836.5 917.1 836.9 917.5 837.5 917.5H852.5C853 917.5 853.5 917.1 853.5 916.5V910.5C853.5 909.9 853 909.5 852.5 909.5H845.5C844.9 909.5 844.5 909.1 844.5 908.5V904.5Z" fill="white" stroke="#263238" stroke-miterlimit="10" stroke-linecap="round" stroke-linejoin="round"/>
<path d="M844.5 904.5C844.5 904 844.1 903.5 843.5 903.5H837.5C836.9 903.5 836.5 904 836.5 904.5V916.5C836.5 917.1 836.9 917.5 837.5 917.5H852.5C853 917.5 853.5 917.1 853.5 916.5V910.5C853.5 909.9 853 909.5 852.5 909.5H845.5C844.9 909.5 844.5 909.1 844.5 908.5V904.5Z" fill="white" stroke="#263238" stroke-miterlimit="10" stroke-linecap="round" stroke-linejoin="round"/>
<path d="M839.5 904V907.5C839.5 907.5 842.5 906.5 842.5 904" fill="white"/>
<path d="M839.5 904V907.5C839.5 907.5 842.5 906.5 842.5 904" stroke="#263238" stroke-miterlimit="10" stroke-linecap="round" stroke-linejoin="round"/>
<mask id="path-13-inside-1_1589_2304" fill="white">
<path d="M940 900H1131V921H940V900Z"/>
</mask>
<path d="M940 900H1131V921H940V900Z" fill="#F0F0F0"/>
<path d="M1130 900V921H1132V900H1130Z" fill="#D6D6D6" mask="url(#path-13-inside-1_1589_2304)"/>
<path d="M1043.5 916.5H1028.5V908.5H1027.5L1036 904.5L1044.5 908.5H1043.5V916.5Z" fill="#ECECEC" stroke="#263238" stroke-miterlimit="10" stroke-linecap="round" stroke-linejoin="round"/>
<path d="M1028.5 908.5H1043.5Z" fill="white"/>
<path d="M1028.5 908.5H1043.5" stroke="#263238" stroke-miterlimit="10" stroke-linecap="round" stroke-linejoin="round"/>
<mask id="path-18-inside-2_1589_2304" fill="white">
<path d="M1131 900H1322V921H1131V900Z"/>
</mask>
<path d="M1131 900H1322V921H1131V900Z" fill="#F0F0F0"/>
<path d="M1321 900V921H1323V900H1321Z" fill="#D6D6D6" mask="url(#path-18-inside-2_1589_2304)"/>
<path d="M1219.5 916.5V905.5L1230.5 903.5L1234.5 905.5V914.5L1230.5 919.5L1219.5 916.5Z" fill="white" stroke="#263238" stroke-miterlimit="10" stroke-linecap="round" stroke-linejoin="round"/>
<path d="M1230.5 903.5V919.5" stroke="#263238" stroke-miterlimit="10" stroke-linecap="round" stroke-linejoin="round"/>
<path d="M1322 900H1513V921H1322V900Z" fill="#F0F0F0"/>
<path d="M1425.5 917H1410.5V909H1409.5L1418 905L1426.5 909H1425.5V917Z" fill="white"/>
<path d="M1425.5 917H1410.5V909H1409.5L1418 905L1426.5 909H1425.5V917Z" stroke="#263238" stroke-miterlimit="10" stroke-linecap="round" stroke-linejoin="round"/>
</g>
<g clip-path="url(#clip3_1589_2304)">
<rect width="26.5895" height="37.2253" transform="matrix(0.751404 -0.659843 -0.659843 -0.751404 1151.2 1020.31)" stroke="#B1B1B5" stroke-width="3.54527" stroke-linejoin="round"/>
<rect width="28.3621" height="24.8169" transform="matrix(0.751404 -0.659843 -0.659843 -0.751404 1110.43 971.189)" stroke="#B1B1B5" stroke-width="1.77263" stroke-linejoin="round"/>
<rect width="5.3179" height="10.6358" transform="matrix(0.751404 -0.659843 -0.659843 -0.751404 1117.45 979.179)" stroke="#B1B1B5" stroke-width="1.77263" stroke-linejoin="round"/>
<rect width="5.3179" height="10.6358" transform="matrix(0.751404 -0.659843 -0.659843 -0.751404 1094.05 952.542)" stroke="#B1B1B5" stroke-width="1.77263" stroke-linejoin="round"/>
<path d="M1153.64 982.782L1162.96 974.594L1163.55 975.26C1167.1 979.306 1166.7 985.466 1162.66 989.019L1160.66 990.774L1153.64 982.782Z" stroke="#B1B1B5" stroke-width="1.77263" stroke-linejoin="round"/>
<path d="M1188.5 987.555L1179.15 976.9L1177.15 978.654C1173.1 982.207 1172.7 988.367 1176.26 992.413L1179.18 995.743L1188.5 987.555Z" stroke="#B1B1B5" stroke-width="1.77263" stroke-linejoin="round"/>
<path d="M1095.03 937.532L1116.34 918.818" stroke="white" stroke-width="1.77263" stroke-linecap="round"/>
<path d="M1092.69 934.867L1114 916.153" stroke="white" stroke-width="1.77263" stroke-linecap="round"/>
<rect width="53.179" height="101.04" transform="matrix(0.751404 -0.659843 -0.659843 -0.751404 1151.2 1020.31)" stroke="#B1B1B5" stroke-width="3.54527" stroke-linejoin="round"/>
<rect width="26.5895" height="37.2253" transform="matrix(0.991561 0.129644 0.129644 -0.991561 1431.36 946.095)" stroke="#B1B1B5" stroke-width="3.54527" stroke-linejoin="round"/>
<path d="M1461.18 923.178L1473.48 924.786L1473.37 925.665C1472.67 931.004 1467.78 934.767 1462.44 934.068L1459.8 933.724L1461.18 923.178Z" stroke="#B1B1B5" stroke-width="1.77263" stroke-linejoin="round"/>
<path d="M1480.59 952.531L1482.42 938.469L1479.79 938.124C1474.45 937.426 1469.55 941.189 1468.86 946.528L1468.28 950.922L1480.59 952.531Z" stroke="#B1B1B5" stroke-width="1.77263" stroke-linejoin="round"/>
<rect width="53.179" height="101.04" transform="matrix(0.991561 0.129644 0.129644 -0.991561 1431.36 946.095)" stroke="#B1B1B5" stroke-width="3.54527" stroke-linejoin="round"/>
<rect width="26.5895" height="37.2253" transform="matrix(0.934951 -0.354777 -0.354777 -0.934951 774.207 1240.13)" stroke="#B1B1B5" stroke-width="3.54527" stroke-linejoin="round"/>
<rect width="28.3621" height="24.8169" transform="matrix(0.934951 -0.354777 -0.354777 -0.934951 753.227 1179.84)" stroke="#B1B1B5" stroke-width="1.77263" stroke-linejoin="round"/>
<rect width="5.3179" height="10.6358" transform="matrix(0.934951 -0.354777 -0.354777 -0.934951 757 1189.78)" stroke="#B1B1B5" stroke-width="1.77263" stroke-linejoin="round"/>
<rect width="5.3179" height="10.6358" transform="matrix(0.934951 -0.354777 -0.354777 -0.934951 744.418 1156.64)" stroke="#B1B1B5" stroke-width="1.77263" stroke-linejoin="round"/>
<path d="M789.641 1205.84L801.242 1201.44L801.556 1202.26C803.467 1207.3 800.934 1212.93 795.9 1214.84L793.414 1215.78L789.641 1205.84Z" stroke="#B1B1B5" stroke-width="1.77263" stroke-linejoin="round"/>
<path d="M820.617 1222.52L815.586 1209.26L813.1 1210.21C808.066 1212.12 805.533 1217.75 807.444 1222.78L809.016 1226.92L820.617 1222.52Z" stroke="#B1B1B5" stroke-width="1.77263" stroke-linejoin="round"/>
<path d="M750.59 1142.92L777.107 1132.86" stroke="white" stroke-width="1.77263" stroke-linecap="round"/>
<path d="M749.336 1139.61L775.853 1129.54" stroke="white" stroke-width="1.77263" stroke-linecap="round"/>
<rect width="53.179" height="101.04" transform="matrix(0.934951 -0.354777 -0.354777 -0.934951 774.207 1240.13)" stroke="#B1B1B5" stroke-width="3.54527" stroke-linejoin="round"/>
<rect width="26.5895" height="37.2253" transform="matrix(0.751404 -0.659843 -0.659843 -0.751404 1231.25 950.016)" stroke="#B1B1B5" stroke-width="3.54527" stroke-linejoin="round"/>
<path d="M1233.69 912.488L1243.01 904.3L1243.6 904.966C1247.15 909.012 1246.75 915.172 1242.7 918.725L1240.71 920.479L1233.69 912.488Z" stroke="#B1B1B5" stroke-width="1.77263" stroke-linejoin="round"/>
<path d="M1268.55 917.261L1259.19 906.606L1257.2 908.36C1253.15 911.913 1252.75 918.073 1256.3 922.119L1259.23 925.449L1268.55 917.261Z" stroke="#B1B1B5" stroke-width="1.77263" stroke-linejoin="round"/>
<rect width="53.179" height="101.04" transform="matrix(0.751404 -0.659843 -0.659843 -0.751404 1231.25 950.016)" stroke="#B1B1B5" stroke-width="3.54527" stroke-linejoin="round"/>
<rect width="26.5895" height="37.2253" transform="matrix(0.934951 -0.354777 -0.354777 -0.934951 873.805 1202.34)" stroke="#B1B1B5" stroke-width="3.54527" stroke-linejoin="round"/>
<rect width="28.3621" height="24.8169" transform="matrix(0.934951 -0.354777 -0.354777 -0.934951 852.824 1142.05)" stroke="#B1B1B5" stroke-width="1.77263" stroke-linejoin="round"/>
<rect width="5.3179" height="10.6358" transform="matrix(0.934951 -0.354777 -0.354777 -0.934951 856.598 1151.99)" stroke="#B1B1B5" stroke-width="1.77263" stroke-linejoin="round"/>
<rect width="5.3179" height="10.6358" transform="matrix(0.934951 -0.354777 -0.354777 -0.934951 844.016 1118.84)" stroke="#B1B1B5" stroke-width="1.77263" stroke-linejoin="round"/>
<path d="M889.238 1168.04L900.84 1163.64L901.154 1164.47C903.064 1169.5 900.532 1175.13 895.498 1177.04L893.012 1177.99L889.238 1168.04Z" stroke="#B1B1B5" stroke-width="1.77263" stroke-linejoin="round"/>
<path d="M920.215 1184.73L915.184 1171.47L912.698 1172.41C907.663 1174.32 905.131 1179.95 907.041 1184.99L908.614 1189.13L920.215 1184.73Z" stroke="#B1B1B5" stroke-width="1.77263" stroke-linejoin="round"/>
<path d="M850.188 1105.13L876.705 1095.06" stroke="white" stroke-width="1.77263" stroke-linecap="round"/>
<path d="M848.934 1101.81L875.451 1091.75" stroke="white" stroke-width="1.77263" stroke-linecap="round"/>
<rect width="53.179" height="101.04" transform="matrix(0.934951 -0.354777 -0.354777 -0.934951 873.805 1202.34)" stroke="#B1B1B5" stroke-width="3.54527" stroke-linejoin="round"/>
<rect x="1148.84" y="1083.68" width="53.179" height="101.04" transform="rotate(-41.3473 1148.84 1083.68)" fill="#287FFF" fill-opacity="0.2"/>
<rect x="1148.84" y="1083.68" width="26.5895" height="37.2253" transform="rotate(-41.3473 1148.84 1083.68)" stroke="#B1B1B5" stroke-width="3.54527" stroke-linejoin="round"/>
<rect x="1192.32" y="1130.41" width="28.3621" height="24.8169" transform="rotate(-41.3473 1192.32 1130.41)" stroke="#B1B1B5" stroke-width="1.77263" stroke-linejoin="round"/>
<rect x="1185.3" y="1122.43" width="5.3179" height="10.6358" transform="rotate(-41.3473 1185.3 1122.43)" stroke="#B1B1B5" stroke-width="1.77263" stroke-linejoin="round"/>
<rect x="1208.72" y="1149.04" width="5.3179" height="10.6358" transform="rotate(-41.3473 1208.72 1149.04)" stroke="#B1B1B5" stroke-width="1.77263" stroke-linejoin="round"/>
<path d="M1186.36 1086.07L1195.68 1077.88L1195.09 1077.21C1191.54 1073.17 1185.38 1072.78 1181.33 1076.33L1179.34 1078.09L1186.36 1086.07Z" stroke="#B1B1B5" stroke-width="1.77263" stroke-linejoin="round"/>
<path d="M1186.09 1050.89L1195.46 1061.53L1193.47 1063.29C1189.42 1066.85 1183.26 1066.46 1179.71 1062.41L1176.78 1059.09L1186.09 1050.89Z" stroke="#B1B1B5" stroke-width="1.77263" stroke-linejoin="round"/>
<path d="M1223.73 1150L1245.03 1131.27" stroke="#BED0E9" stroke-width="1.77263" stroke-linecap="round"/>
<path d="M1226.07 1152.66L1247.36 1133.93" stroke="white" stroke-width="1.77263" stroke-linecap="round"/>
<rect x="1148.84" y="1083.68" width="53.179" height="101.04" transform="rotate(-41.3473 1148.84 1083.68)" stroke="#B1B1B5" stroke-width="3.54527" stroke-linejoin="round"/>
<rect x="930.926" y="1238.05" width="26.5895" height="37.2253" transform="rotate(-20.8187 930.926 1238.05)" stroke="#B1B1B5" stroke-width="3.54527" stroke-linejoin="round"/>
<rect x="955.262" y="1297.06" width="28.3621" height="24.8169" transform="rotate(-20.8187 955.262 1297.06)" stroke="#B1B1B5" stroke-width="1.77263" stroke-linejoin="round"/>
<rect x="951.48" y="1287.12" width="5.3179" height="10.6358" transform="rotate(-20.8187 951.48 1287.12)" stroke="#B1B1B5" stroke-width="1.77263" stroke-linejoin="round"/>
<rect x="964.086" y="1320.26" width="5.3179" height="10.6358" transform="rotate(-20.8187 964.086 1320.26)" stroke="#B1B1B5" stroke-width="1.77263" stroke-linejoin="round"/>
<path d="M965.234 1253.45L976.833 1249.04L976.518 1248.21C974.604 1243.18 968.973 1240.65 963.94 1242.56L961.454 1243.51L965.234 1253.45Z" stroke="#B1B1B5" stroke-width="1.77263" stroke-linejoin="round"/>
<path d="M977.316 1220.41L982.357 1233.66L979.871 1234.61C974.838 1236.52 969.207 1233.99 967.293 1228.96L965.718 1224.82L977.316 1220.41Z" stroke="#B1B1B5" stroke-width="1.77263" stroke-linejoin="round"/>
<path d="M977.805 1326.42L1004.32 1316.34" stroke="white" stroke-width="1.77263" stroke-linecap="round"/>
<path d="M979.062 1329.74L1005.57 1319.66" stroke="white" stroke-width="1.77263" stroke-linecap="round"/>
<rect x="930.926" y="1238.05" width="53.179" height="101.04" transform="rotate(-20.8187 930.926 1238.05)" stroke="#B1B1B5" stroke-width="3.54527" stroke-linejoin="round"/>
<rect width="26.5895" height="37.2253" transform="matrix(0.751404 -0.659843 -0.659843 -0.751404 1071.28 1090.47)" stroke="#B1B1B5" stroke-width="3.54527" stroke-linejoin="round"/>
<rect width="28.3621" height="24.8169" transform="matrix(0.751404 -0.659843 -0.659843 -0.751404 1030.5 1041.35)" stroke="#B1B1B5" stroke-width="1.77263" stroke-linejoin="round"/>
<rect width="5.3179" height="10.6358" transform="matrix(0.751404 -0.659843 -0.659843 -0.751404 1037.52 1049.34)" stroke="#B1B1B5" stroke-width="1.77263" stroke-linejoin="round"/>
<rect width="5.3179" height="10.6358" transform="matrix(0.751404 -0.659843 -0.659843 -0.751404 1014.13 1022.7)" stroke="#B1B1B5" stroke-width="1.77263" stroke-linejoin="round"/>
<path d="M1073.71 1052.95L1083.04 1044.76L1083.62 1045.43C1087.18 1049.47 1086.78 1055.63 1082.73 1059.19L1080.73 1060.94L1073.71 1052.95Z" stroke="#B1B1B5" stroke-width="1.77263" stroke-linejoin="round"/>
<path d="M1108.57 1057.72L1099.22 1047.07L1097.22 1048.82C1093.17 1052.37 1092.77 1058.53 1096.33 1062.58L1099.25 1065.91L1108.57 1057.72Z" stroke="#B1B1B5" stroke-width="1.77263" stroke-linejoin="round"/>
<path d="M1015.1 1007.7L1036.41 988.982" stroke="white" stroke-width="1.77263" stroke-linecap="round"/>
<path d="M1012.76 1005.03L1034.07 986.316" stroke="white" stroke-width="1.77263" stroke-linecap="round"/>
<rect width="53.179" height="101.04" transform="matrix(0.751404 -0.659843 -0.659843 -0.751404 1071.28 1090.47)" stroke="#B1B1B5" stroke-width="3.54527" stroke-linejoin="round"/>
<rect x="1068.98" y="1153.94" width="26.5895" height="37.2253" transform="rotate(-41.3473 1068.98 1153.94)" stroke="#B1B1B5" stroke-width="3.54527" stroke-linejoin="round"/>
<rect x="1112.46" y="1200.68" width="28.3621" height="24.8169" transform="rotate(-41.3473 1112.46 1200.68)" stroke="#B1B1B5" stroke-width="1.77263" stroke-linejoin="round"/>
<rect x="1105.44" y="1192.69" width="5.3179" height="10.6358" transform="rotate(-41.3473 1105.44 1192.69)" stroke="#B1B1B5" stroke-width="1.77263" stroke-linejoin="round"/>
<rect x="1128.87" y="1219.31" width="5.3179" height="10.6358" transform="rotate(-41.3473 1128.87 1219.31)" stroke="#B1B1B5" stroke-width="1.77263" stroke-linejoin="round"/>
<path d="M1106.51 1156.34L1115.82 1148.14L1115.24 1147.47C1111.68 1143.43 1105.52 1143.04 1101.48 1146.59L1099.48 1148.35L1106.51 1156.34Z" stroke="#B1B1B5" stroke-width="1.77263" stroke-linejoin="round"/>
<path d="M1106.25 1121.15L1115.61 1131.8L1113.62 1133.55C1109.58 1137.11 1103.42 1136.72 1099.86 1132.68L1096.93 1129.35L1106.25 1121.15Z" stroke="#B1B1B5" stroke-width="1.77263" stroke-linejoin="round"/>
<path d="M1143.88 1220.26L1165.17 1201.53" stroke="white" stroke-width="1.77263" stroke-linecap="round"/>
<path d="M1146.22 1222.93L1167.51 1204.19" stroke="white" stroke-width="1.77263" stroke-linecap="round"/>
<rect x="1068.98" y="1153.94" width="53.179" height="101.04" transform="rotate(-41.3473 1068.98 1153.94)" stroke="#B1B1B5" stroke-width="3.54527" stroke-linejoin="round"/>
<rect x="732.094" y="1313.65" width="26.5895" height="37.2253" transform="rotate(-20.8187 732.094 1313.65)" stroke="#B1B1B5" stroke-width="3.54527" stroke-linejoin="round"/>
<rect x="752.656" y="1362.72" width="5.3179" height="10.6358" transform="rotate(-20.8187 752.656 1362.72)" stroke="#B1B1B5" stroke-width="1.77263" stroke-linejoin="round"/>
<path d="M766.406 1329.05L778.005 1324.64L777.69 1323.81C775.776 1318.78 770.144 1316.25 765.112 1318.16L762.626 1319.11L766.406 1329.05Z" stroke="#B1B1B5" stroke-width="1.77263" stroke-linejoin="round"/>
<path d="M778.488 1296.01L783.528 1309.26L781.043 1310.21C776.01 1312.12 770.379 1309.59 768.465 1304.56L766.89 1300.42L778.488 1296.01Z" stroke="#B1B1B5" stroke-width="1.77263" stroke-linejoin="round"/>
<rect x="732.094" y="1313.65" width="53.179" height="101.04" transform="rotate(-20.8187 732.094 1313.65)" stroke="#B1B1B5" stroke-width="3.54527" stroke-linejoin="round"/>
<rect x="1151.2" y="1020.3" width="26.5895" height="37.2253" transform="rotate(138.712 1151.2 1020.3)" stroke="#B1B1B5" stroke-width="3.54527" stroke-linejoin="round"/>
<rect x="1107.76" y="973.517" width="28.3621" height="24.8169" transform="rotate(138.712 1107.76 973.517)" stroke="#B1B1B5" stroke-width="1.77263" stroke-linejoin="round"/>
<rect x="1114.78" y="981.51" width="5.3179" height="10.6358" transform="rotate(138.712 1114.78 981.51)" stroke="#B1B1B5" stroke-width="1.77263" stroke-linejoin="round"/>
<rect x="1091.38" y="954.871" width="5.3179" height="10.6358" transform="rotate(138.712 1091.38 954.871)" stroke="#B1B1B5" stroke-width="1.77263" stroke-linejoin="round"/>
<path d="M1113.67 1017.87L1104.34 1026.06L1104.93 1026.72C1108.48 1030.77 1114.64 1031.17 1118.69 1027.62L1120.69 1025.86L1113.67 1017.87Z" stroke="#B1B1B5" stroke-width="1.77263" stroke-linejoin="round"/>
<path d="M1113.9 1053.05L1104.55 1042.4L1106.54 1040.64C1110.59 1037.09 1116.75 1037.49 1120.3 1041.53L1123.23 1044.86L1113.9 1053.05Z" stroke="#B1B1B5" stroke-width="1.77263" stroke-linejoin="round"/>
<path d="M1076.37 953.9L1055.06 972.614" stroke="white" stroke-width="1.77263" stroke-linecap="round"/>
<path d="M1074.03 951.237L1052.72 969.952" stroke="white" stroke-width="1.77263" stroke-linecap="round"/>
<rect x="1151.2" y="1020.3" width="53.179" height="101.04" transform="rotate(138.712 1151.2 1020.3)" stroke="#B1B1B5" stroke-width="3.54527" stroke-linejoin="round"/>
<rect x="1431.37" y="946.085" width="26.5895" height="37.2253" transform="rotate(-172.551 1431.37 946.085)" stroke="#B1B1B5" stroke-width="3.54527" stroke-linejoin="round"/>
<path d="M1408.45 916.273L1396.14 914.665L1396.03 915.543C1395.33 920.882 1399.09 925.776 1404.43 926.475L1407.07 926.819L1408.45 916.273Z" stroke="#B1B1B5" stroke-width="1.77263" stroke-linejoin="round"/>
<path d="M1382.16 939.651L1383.99 925.59L1386.63 925.935C1391.97 926.633 1395.73 931.527 1395.03 936.866L1394.46 941.26L1382.16 939.651Z" stroke="#B1B1B5" stroke-width="1.77263" stroke-linejoin="round"/>
<rect x="1431.37" y="946.086" width="53.179" height="101.04" transform="rotate(-172.551 1431.37 946.086)" stroke="#B1B1B5" stroke-width="3.54527" stroke-linejoin="round"/>
<rect x="774.203" y="1240.12" width="26.5895" height="37.2253" transform="rotate(159.22 774.203 1240.12)" stroke="#B1B1B5" stroke-width="3.54527" stroke-linejoin="round"/>
<rect x="749.914" y="1181.09" width="28.3621" height="24.8169" transform="rotate(159.22 749.914 1181.09)" stroke="#B1B1B5" stroke-width="1.77263" stroke-linejoin="round"/>
<rect x="753.684" y="1191.03" width="5.3179" height="10.6358" transform="rotate(159.22 753.684 1191.03)" stroke="#B1B1B5" stroke-width="1.77263" stroke-linejoin="round"/>
<rect x="741.105" y="1157.88" width="5.3179" height="10.6358" transform="rotate(159.22 741.105 1157.88)" stroke="#B1B1B5" stroke-width="1.77263" stroke-linejoin="round"/>
<path d="M739.906 1224.7L728.305 1229.1L728.619 1229.93C730.53 1234.96 736.159 1237.5 741.194 1235.59L743.68 1234.64L739.906 1224.7Z" stroke="#B1B1B5" stroke-width="1.77263" stroke-linejoin="round"/>
<path d="M727.801 1257.73L722.77 1244.47L725.256 1243.53C730.29 1241.62 735.92 1244.15 737.83 1249.19L739.402 1253.33L727.801 1257.73Z" stroke="#B1B1B5" stroke-width="1.77263" stroke-linejoin="round"/>
<path d="M727.387 1151.72L700.87 1161.78" stroke="white" stroke-width="1.77263" stroke-linecap="round"/>
<path d="M726.125 1148.4L699.608 1158.46" stroke="white" stroke-width="1.77263" stroke-linecap="round"/>
<rect x="774.203" y="1240.12" width="53.179" height="101.04" transform="rotate(159.22 774.203 1240.12)" stroke="#B1B1B5" stroke-width="3.54527" stroke-linejoin="round"/>
<rect x="1231.24" y="950.01" width="26.5895" height="37.2253" transform="rotate(138.712 1231.24 950.01)" stroke="#B1B1B5" stroke-width="3.54527" stroke-linejoin="round"/>
<rect x="1187.81" y="903.223" width="28.3621" height="24.8169" transform="rotate(138.712 1187.81 903.223)" stroke="#B1B1B5" stroke-width="1.77263" stroke-linejoin="round"/>
<path d="M1193.71 947.576L1184.39 955.764L1184.98 956.43C1188.53 960.476 1194.69 960.875 1198.73 957.322L1200.73 955.568L1193.71 947.576Z" stroke="#B1B1B5" stroke-width="1.77263" stroke-linejoin="round"/>
<path d="M1193.95 982.758L1184.59 972.102L1186.59 970.348C1190.64 966.795 1196.8 967.194 1200.35 971.24L1203.27 974.57L1193.95 982.758Z" stroke="#B1B1B5" stroke-width="1.77263" stroke-linejoin="round"/>
<rect x="1231.24" y="950.01" width="53.179" height="101.04" transform="rotate(138.712 1231.24 950.01)" stroke="#B1B1B5" stroke-width="3.54527" stroke-linejoin="round"/>
<rect x="1537" y="959.897" width="26.5895" height="37.2253" transform="rotate(-172.551 1537 959.897)" stroke="#B1B1B5" stroke-width="3.54527" stroke-linejoin="round"/>
<path d="M1514.07 930.084L1501.77 928.476L1501.66 929.355C1500.96 934.694 1504.72 939.588 1510.06 940.286L1512.7 940.631L1514.07 930.084Z" stroke="#B1B1B5" stroke-width="1.77263" stroke-linejoin="round"/>
<path d="M1487.79 953.463L1489.62 939.401L1492.26 939.746C1497.6 940.444 1501.36 945.338 1500.66 950.677L1500.09 955.071L1487.79 953.463Z" stroke="#B1B1B5" stroke-width="1.77263" stroke-linejoin="round"/>
<rect x="1537" y="959.897" width="53.179" height="101.04" transform="rotate(-172.551 1537 959.897)" stroke="#B1B1B5" stroke-width="3.54527" stroke-linejoin="round"/>
<rect x="873.805" y="1202.33" width="26.5895" height="37.2253" transform="rotate(159.22 873.805 1202.33)" stroke="#B1B1B5" stroke-width="3.54527" stroke-linejoin="round"/>
<rect x="849.516" y="1143.29" width="28.3621" height="24.8169" transform="rotate(159.22 849.516 1143.29)" stroke="#B1B1B5" stroke-width="1.77263" stroke-linejoin="round"/>
<rect x="853.285" y="1153.24" width="5.3179" height="10.6358" transform="rotate(159.22 853.285 1153.24)" stroke="#B1B1B5" stroke-width="1.77263" stroke-linejoin="round"/>
<rect x="840.707" y="1120.09" width="5.3179" height="10.6358" transform="rotate(159.22 840.707 1120.09)" stroke="#B1B1B5" stroke-width="1.77263" stroke-linejoin="round"/>
<path d="M839.508 1186.9L827.907 1191.31L828.221 1192.13C830.131 1197.17 835.761 1199.7 840.795 1197.79L843.281 1196.85L839.508 1186.9Z" stroke="#B1B1B5" stroke-width="1.77263" stroke-linejoin="round"/>
<path d="M827.402 1219.94L822.371 1206.68L824.857 1205.74C829.891 1203.83 835.521 1206.36 837.431 1211.39L839.004 1215.54L827.402 1219.94Z" stroke="#B1B1B5" stroke-width="1.77263" stroke-linejoin="round"/>
<path d="M826.988 1113.92L800.471 1123.98" stroke="white" stroke-width="1.77263" stroke-linecap="round"/>
<path d="M825.727 1110.61L799.209 1120.67" stroke="white" stroke-width="1.77263" stroke-linecap="round"/>
<rect x="873.805" y="1202.33" width="53.179" height="101.04" transform="rotate(159.22 873.805 1202.33)" stroke="#B1B1B5" stroke-width="3.54527" stroke-linejoin="round"/>
<rect width="26.5895" height="37.2253" transform="matrix(-0.750719 0.660622 0.660622 0.750719 1148.84 1083.68)" stroke="#B1B1B5" stroke-width="3.54527" stroke-linejoin="round"/>
<rect width="28.3621" height="24.8169" transform="matrix(-0.750719 0.660622 0.660622 0.750719 1189.66 1132.76)" stroke="#B1B1B5" stroke-width="1.77263" stroke-linejoin="round"/>
<rect width="5.3179" height="10.6358" transform="matrix(-0.750719 0.660622 0.660622 0.750719 1182.63 1124.77)" stroke="#B1B1B5" stroke-width="1.77263" stroke-linejoin="round"/>
<rect width="5.3179" height="10.6358" transform="matrix(-0.750719 0.660622 0.660622 0.750719 1206.05 1151.39)" stroke="#B1B1B5" stroke-width="1.77263" stroke-linejoin="round"/>
<path d="M1146.44 1121.2L1137.13 1129.4L1136.54 1128.74C1132.98 1124.69 1133.38 1118.53 1137.42 1114.98L1139.42 1113.22L1146.44 1121.2Z" stroke="#B1B1B5" stroke-width="1.77263" stroke-linejoin="round"/>
<path d="M1111.57 1116.47L1120.94 1127.11L1122.93 1125.36C1126.98 1121.8 1127.37 1115.64 1123.81 1111.6L1120.89 1108.27L1111.57 1116.47Z" stroke="#B1B1B5" stroke-width="1.77263" stroke-linejoin="round"/>
<path d="M1205.09 1166.4L1183.8 1185.13" stroke="white" stroke-width="1.77263" stroke-linecap="round"/>
<path d="M1207.44 1169.06L1186.15 1187.8" stroke="white" stroke-width="1.77263" stroke-linecap="round"/>
<rect width="53.179" height="101.04" transform="matrix(-0.750719 0.660622 0.660622 0.750719 1148.84 1083.68)" stroke="#B1B1B5" stroke-width="3.54527" stroke-linejoin="round"/>
<rect width="26.5895" height="37.2253" transform="matrix(-0.93471 0.355411 0.355411 0.93471 831.512 1275.85)" stroke="#B1B1B5" stroke-width="3.54527" stroke-linejoin="round"/>
<rect width="28.3621" height="24.8169" transform="matrix(-0.93471 0.355411 0.355411 0.93471 852.535 1336.12)" stroke="#B1B1B5" stroke-width="1.77263" stroke-linejoin="round"/>
<rect width="5.3179" height="10.6358" transform="matrix(-0.93471 0.355411 0.355411 0.93471 848.75 1326.18)" stroke="#B1B1B5" stroke-width="1.77263" stroke-linejoin="round"/>
<rect width="5.3179" height="10.6358" transform="matrix(-0.93471 0.355411 0.355411 0.93471 861.352 1359.32)" stroke="#B1B1B5" stroke-width="1.77263" stroke-linejoin="round"/>
<path d="M816.102 1310.15L804.503 1314.56L804.188 1313.73C802.275 1308.7 804.803 1303.07 809.836 1301.15L812.321 1300.21L816.102 1310.15Z" stroke="#B1B1B5" stroke-width="1.77263" stroke-linejoin="round"/>
<path d="M785.117 1293.49L790.157 1306.74L792.643 1305.8C797.676 1303.88 800.204 1298.25 798.291 1293.22L796.715 1289.08L785.117 1293.49Z" stroke="#B1B1B5" stroke-width="1.77263" stroke-linejoin="round"/>
<rect width="53.179" height="101.04" transform="matrix(-0.93471 0.355411 0.355411 0.93471 831.512 1275.85)" stroke="#B1B1B5" stroke-width="3.54527" stroke-linejoin="round"/>
<rect width="26.5895" height="37.2253" transform="matrix(-0.93471 0.355411 0.355411 0.93471 930.926 1238.05)" stroke="#B1B1B5" stroke-width="3.54527" stroke-linejoin="round"/>
<rect width="28.3621" height="24.8169" transform="matrix(-0.93471 0.355411 0.355411 0.93471 951.953 1298.32)" stroke="#B1B1B5" stroke-width="1.77263" stroke-linejoin="round"/>
<rect width="5.3179" height="10.6358" transform="matrix(-0.93471 0.355411 0.355411 0.93471 948.164 1288.38)" stroke="#B1B1B5" stroke-width="1.77263" stroke-linejoin="round"/>
<rect width="5.3179" height="10.6358" transform="matrix(-0.93471 0.355411 0.355411 0.93471 960.766 1321.52)" stroke="#B1B1B5" stroke-width="1.77263" stroke-linejoin="round"/>
<path d="M915.523 1272.35L903.925 1276.76L903.61 1275.93C901.696 1270.9 904.225 1265.27 909.258 1263.35L911.743 1262.41L915.523 1272.35Z" stroke="#B1B1B5" stroke-width="1.77263" stroke-linejoin="round"/>
<path d="M884.531 1255.69L889.571 1268.94L892.057 1268C897.09 1266.08 899.618 1260.45 897.705 1255.42L896.13 1251.28L884.531 1255.69Z" stroke="#B1B1B5" stroke-width="1.77263" stroke-linejoin="round"/>
<path d="M954.609 1335.24L928.099 1345.32" stroke="white" stroke-width="1.77263" stroke-linecap="round"/>
<path d="M955.867 1338.56L929.357 1348.64" stroke="white" stroke-width="1.77263" stroke-linecap="round"/>
<rect width="53.179" height="101.04" transform="matrix(-0.93471 0.355411 0.355411 0.93471 930.926 1238.05)" stroke="#B1B1B5" stroke-width="3.54527" stroke-linejoin="round"/>
<rect width="26.5895" height="37.2253" transform="matrix(-0.750719 0.660622 0.660622 0.750719 1068.98 1153.94)" stroke="#B1B1B5" stroke-width="3.54527" stroke-linejoin="round"/>
<rect width="28.3621" height="24.8169" transform="matrix(-0.750719 0.660622 0.660622 0.750719 1109.81 1203.02)" stroke="#B1B1B5" stroke-width="1.77263" stroke-linejoin="round"/>
<rect width="5.3179" height="10.6358" transform="matrix(-0.750719 0.660622 0.660622 0.750719 1102.78 1195.03)" stroke="#B1B1B5" stroke-width="1.77263" stroke-linejoin="round"/>
<rect width="5.3179" height="10.6358" transform="matrix(-0.750719 0.660622 0.660622 0.750719 1126.2 1221.65)" stroke="#B1B1B5" stroke-width="1.77263" stroke-linejoin="round"/>
<path d="M1066.59 1191.47L1057.27 1199.66L1056.69 1199C1053.13 1194.96 1053.52 1188.8 1057.56 1185.24L1059.56 1183.48L1066.59 1191.47Z" stroke="#B1B1B5" stroke-width="1.77263" stroke-linejoin="round"/>
<path d="M1031.72 1186.73L1041.09 1197.38L1043.08 1195.62C1047.13 1192.06 1047.52 1185.9 1043.96 1181.86L1041.03 1178.53L1031.72 1186.73Z" stroke="#B1B1B5" stroke-width="1.77263" stroke-linejoin="round"/>
<path d="M1125.25 1236.66L1103.95 1255.4" stroke="white" stroke-width="1.77263" stroke-linecap="round"/>
<path d="M1127.59 1239.32L1106.29 1258.06" stroke="white" stroke-width="1.77263" stroke-linecap="round"/>
<rect width="53.179" height="101.04" transform="matrix(-0.750719 0.660622 0.660622 0.750719 1068.98 1153.94)" stroke="#B1B1B5" stroke-width="3.54527" stroke-linejoin="round"/>
<rect width="26.5895" height="37.2253" transform="matrix(-0.93471 0.355411 0.355411 0.93471 732.094 1313.65)" stroke="#B1B1B5" stroke-width="3.54527" stroke-linejoin="round"/>
<path d="M716.691 1347.95L705.093 1352.36L704.778 1351.53C702.864 1346.5 705.393 1340.87 710.426 1338.95L712.911 1338.01L716.691 1347.95Z" stroke="#B1B1B5" stroke-width="1.77263" stroke-linejoin="round"/>
<rect width="53.179" height="101.04" transform="matrix(-0.93471 0.355411 0.355411 0.93471 732.094 1313.65)" stroke="#B1B1B5" stroke-width="3.54527" stroke-linejoin="round"/>
<path d="M877.906 1258.21L882.946 1271.46L880.46 1272.41C875.427 1274.32 869.796 1271.79 867.883 1266.76L866.308 1262.62L877.906 1258.21Z" stroke="#B1B1B5" stroke-width="1.77263" stroke-linejoin="round"/>
<rect x="831.512" y="1275.84" width="26.5895" height="37.2253" transform="rotate(-20.8154 831.512 1275.84)" stroke="#B1B1B5" stroke-width="3.54527" stroke-linejoin="round"/>
<rect x="855.844" y="1334.86" width="28.3621" height="24.8169" transform="rotate(-20.8154 855.844 1334.86)" stroke="#B1B1B5" stroke-width="1.77263" stroke-linejoin="round"/>
<rect x="852.062" y="1324.92" width="5.3179" height="10.6358" transform="rotate(-20.8154 852.062 1324.92)" stroke="#B1B1B5" stroke-width="1.77263" stroke-linejoin="round"/>
<rect x="864.656" y="1358.06" width="5.3179" height="10.6358" transform="rotate(-20.8154 864.656 1358.06)" stroke="#B1B1B5" stroke-width="1.77263" stroke-linejoin="round"/>
<path d="M865.809 1291.25L877.407 1286.84L877.092 1286.01C875.179 1280.98 869.548 1278.45 864.514 1280.36L862.029 1281.31L865.809 1291.25Z" stroke="#B1B1B5" stroke-width="1.77263" stroke-linejoin="round"/>
<path d="M878.383 1364.22L904.894 1354.14" stroke="white" stroke-width="1.77263" stroke-linecap="round"/>
<path d="M879.641 1367.54L906.152 1357.46" stroke="white" stroke-width="1.77263" stroke-linecap="round"/>
<rect x="831.512" y="1275.84" width="53.179" height="101.04" transform="rotate(-20.8154 831.512 1275.84)" stroke="#B1B1B5" stroke-width="3.54527" stroke-linejoin="round"/>
<rect x="1148.85" y="1083.53" width="53.179" height="101.04" transform="rotate(-41.4652 1148.85 1083.53)" stroke="#287FFF" stroke-width="3.54527" stroke-linejoin="round"/>
<circle cx="1148.79" cy="1083.29" r="4.43158" transform="rotate(-21.9452 1148.79 1083.29)" fill="#287FFF"/>
<circle cx="1215.81" cy="1159.49" r="4.43158" transform="rotate(-21.9452 1215.81 1159.49)" fill="#287FFF"/>
<circle cx="1188.21" cy="1048.3" r="4.43158" transform="rotate(-21.9452 1188.21 1048.3)" fill="#287FFF"/>
<circle cx="1255.22" cy="1124.5" r="4.43158" transform="rotate(-21.9452 1255.22 1124.5)" fill="#287FFF"/>
<path d="M439.421 1396.77L663.948 1391.69L1036.63 1249.69L1286.9 1025.94L1853.12 1104.79" stroke="#287FFF" stroke-width="3.54527" stroke-linecap="round" stroke-dasharray="10.64 21.27"/>
<path d="M372.42 1261.77L596.948 1256.69L969.633 1114.69L1247.13 872.004L1677.64 927.504" stroke="#287FFF" stroke-width="3.54527" stroke-linecap="round" stroke-dasharray="10.64 21.27"/>
<rect x="1071.27" y="1090.47" width="26.5895" height="37.2253" transform="rotate(138.712 1071.27 1090.47)" stroke="#B1B1B5" stroke-width="3.54527" stroke-linejoin="round"/>
<rect x="1027.83" y="1043.68" width="28.3621" height="24.8169" transform="rotate(138.712 1027.83 1043.68)" stroke="#B1B1B5" stroke-width="1.77263" stroke-linejoin="round"/>
<rect x="1034.85" y="1051.68" width="5.3179" height="10.6358" transform="rotate(138.712 1034.85 1051.68)" stroke="#B1B1B5" stroke-width="1.77263" stroke-linejoin="round"/>
<rect x="1011.46" y="1025.03" width="5.3179" height="10.6358" transform="rotate(138.712 1011.46 1025.03)" stroke="#B1B1B5" stroke-width="1.77263" stroke-linejoin="round"/>
<path d="M1033.74 1088.03L1024.41 1096.22L1025 1096.89C1028.55 1100.93 1034.71 1101.33 1038.76 1097.78L1040.76 1096.03L1033.74 1088.03Z" stroke="#B1B1B5" stroke-width="1.77263" stroke-linejoin="round"/>
<path d="M1033.98 1123.21L1024.62 1112.56L1026.62 1110.8C1030.66 1107.25 1036.82 1107.65 1040.38 1111.7L1043.3 1115.03L1033.98 1123.21Z" stroke="#B1B1B5" stroke-width="1.77263" stroke-linejoin="round"/>
<path d="M996.445 1024.06L975.134 1042.78" stroke="white" stroke-width="1.77263" stroke-linecap="round"/>
<path d="M994.105 1021.4L972.794 1040.11" stroke="white" stroke-width="1.77263" stroke-linecap="round"/>
<rect x="1071.27" y="1090.47" width="53.179" height="101.04" transform="rotate(138.712 1071.27 1090.47)" stroke="#B1B1B5" stroke-width="3.54527" stroke-linejoin="round"/>
<rect x="1481.55" y="1003.93" width="26.5895" height="37.2253" transform="rotate(7.89936 1481.55 1003.93)" stroke="#B1B1B5" stroke-width="3.54527" stroke-linejoin="round"/>
<rect x="1474.54" y="1067.39" width="28.3621" height="24.8169" transform="rotate(7.89936 1474.54 1067.39)" stroke="#B1B1B5" stroke-width="1.77263" stroke-linejoin="round"/>
<rect x="1476.01" y="1056.85" width="5.3179" height="10.6358" transform="rotate(7.89936 1476.01 1056.85)" stroke="#B1B1B5" stroke-width="1.77263" stroke-linejoin="round"/>
<rect x="1471.12" y="1091.97" width="5.3179" height="10.6358" transform="rotate(7.89936 1471.12 1091.97)" stroke="#B1B1B5" stroke-width="1.77263" stroke-linejoin="round"/>
<path d="M1504.24 1033.92L1516.53 1035.63L1516.65 1034.75C1517.39 1029.42 1513.67 1024.49 1508.33 1023.75L1505.7 1023.39L1504.24 1033.92Z" stroke="#B1B1B5" stroke-width="1.77263" stroke-linejoin="round"/>
<path d="M1480.2 1103.96L1508.29 1107.86" stroke="white" stroke-width="1.77263" stroke-linecap="round"/>
<path d="M1479.71 1107.48L1507.8 1111.37" stroke="white" stroke-width="1.77263" stroke-linecap="round"/>
<rect x="1481.55" y="1003.93" width="53.179" height="101.04" transform="rotate(7.89936 1481.55 1003.93)" stroke="#B1B1B5" stroke-width="3.54527" stroke-linejoin="round"/>
<rect x="1376.2" y="989.313" width="26.5895" height="37.2253" transform="rotate(7.89936 1376.2 989.313)" stroke="#B1B1B5" stroke-width="3.54527" stroke-linejoin="round"/>
<rect x="1369.18" y="1052.77" width="28.3621" height="24.8169" transform="rotate(7.89936 1369.18 1052.77)" stroke="#B1B1B5" stroke-width="1.77263" stroke-linejoin="round"/>
<rect x="1370.65" y="1042.23" width="5.3179" height="10.6358" transform="rotate(7.89936 1370.65 1042.23)" stroke="#B1B1B5" stroke-width="1.77263" stroke-linejoin="round"/>
<rect x="1365.77" y="1077.35" width="5.3179" height="10.6358" transform="rotate(7.89936 1365.77 1077.35)" stroke="#B1B1B5" stroke-width="1.77263" stroke-linejoin="round"/>
<path d="M1398.88 1019.3L1411.17 1021.01L1411.3 1020.13C1412.04 1014.8 1408.31 1009.87 1402.98 1009.13L1400.34 1008.77L1398.88 1019.3Z" stroke="#B1B1B5" stroke-width="1.77263" stroke-linejoin="round"/>
<path d="M1425.36 996.134L1423.41 1010.18L1420.78 1009.82C1415.44 1009.08 1411.72 1004.15 1412.46 998.818L1413.07 994.429L1425.36 996.134Z" stroke="#B1B1B5" stroke-width="1.77263" stroke-linejoin="round"/>
<path d="M1374.84 1089.34L1402.94 1093.24" stroke="white" stroke-width="1.77263" stroke-linecap="round"/>
<path d="M1374.36 1092.86L1402.45 1096.75" stroke="white" stroke-width="1.77263" stroke-linecap="round"/>
<rect x="1376.2" y="989.313" width="53.179" height="101.04" transform="rotate(7.89936 1376.2 989.313)" stroke="#B1B1B5" stroke-width="3.54527" stroke-linejoin="round"/>
<rect width="26.5895" height="37.2253" transform="matrix(-0.990511 -0.137433 -0.137433 0.990511 1481.55 1003.93)" stroke="#B1B1B5" stroke-width="3.54527" stroke-linejoin="round"/>
<rect width="28.3621" height="24.8169" transform="matrix(-0.990511 -0.137433 -0.137433 0.990511 1471.03 1066.9)" stroke="#B1B1B5" stroke-width="1.77263" stroke-linejoin="round"/>
<rect width="5.3179" height="10.6358" transform="matrix(-0.990511 -0.137433 -0.137433 0.990511 1472.49 1056.36)" stroke="#B1B1B5" stroke-width="1.77263" stroke-linejoin="round"/>
<rect width="5.3179" height="10.6358" transform="matrix(-0.990511 -0.137433 -0.137433 0.990511 1467.62 1091.48)" stroke="#B1B1B5" stroke-width="1.77263" stroke-linejoin="round"/>
<path d="M1451.57 1026.62L1439.28 1024.91L1439.4 1024.03C1440.14 1018.7 1445.06 1014.97 1450.39 1015.71L1453.03 1016.08L1451.57 1026.62Z" stroke="#B1B1B5" stroke-width="1.77263" stroke-linejoin="round"/>
<path d="M1432.39 997.111L1430.44 1011.16L1433.07 1011.52C1438.4 1012.26 1443.33 1008.54 1444.07 1003.21L1444.68 998.816L1432.39 997.111Z" stroke="#B1B1B5" stroke-width="1.77263" stroke-linejoin="round"/>
<path d="M1455.62 1100.55L1427.53 1096.65" stroke="white" stroke-width="1.77263" stroke-linecap="round"/>
<path d="M1455.13 1104.06L1427.04 1100.17" stroke="white" stroke-width="1.77263" stroke-linecap="round"/>
<rect width="53.179" height="101.04" transform="matrix(-0.990511 -0.137433 -0.137433 0.990511 1481.55 1003.93)" stroke="#B1B1B5" stroke-width="3.54527" stroke-linejoin="round"/>
<rect width="26.5895" height="37.2253" transform="matrix(-0.990511 -0.137433 -0.137433 0.990511 1376.2 989.313)" stroke="#B1B1B5" stroke-width="3.54527" stroke-linejoin="round"/>
<rect width="28.3621" height="24.8169" transform="matrix(-0.990511 -0.137433 -0.137433 0.990511 1365.68 1052.28)" stroke="#B1B1B5" stroke-width="1.77263" stroke-linejoin="round"/>
<rect width="5.3179" height="10.6358" transform="matrix(-0.990511 -0.137433 -0.137433 0.990511 1367.13 1041.74)" stroke="#B1B1B5" stroke-width="1.77263" stroke-linejoin="round"/>
<rect width="5.3179" height="10.6358" transform="matrix(-0.990511 -0.137433 -0.137433 0.990511 1362.26 1076.86)" stroke="#B1B1B5" stroke-width="1.77263" stroke-linejoin="round"/>
<path d="M1346.21 1012L1333.92 1010.29L1334.04 1009.41C1334.78 1004.08 1339.71 1000.36 1345.04 1001.1L1347.67 1001.46L1346.21 1012Z" stroke="#B1B1B5" stroke-width="1.77263" stroke-linejoin="round"/>
<path d="M1327.03 982.491L1325.08 996.538L1327.72 996.903C1333.05 997.643 1337.97 993.92 1338.71 988.586L1339.32 984.197L1327.03 982.491Z" stroke="#B1B1B5" stroke-width="1.77263" stroke-linejoin="round"/>
<path d="M1350.26 1085.93L1322.17 1082.04" stroke="white" stroke-width="1.77263" stroke-linecap="round"/>
<path d="M1349.77 1089.44L1321.68 1085.55" stroke="white" stroke-width="1.77263" stroke-linecap="round"/>
<rect width="53.179" height="101.04" transform="matrix(-0.990511 -0.137433 -0.137433 0.990511 1376.2 989.313)" stroke="#B1B1B5" stroke-width="3.54527" stroke-linejoin="round"/>
</g>
</g>
<path d="M686 814.262C686 805.281 693.281 798 702.262 798H1526.74C1535.72 798 1543 805.281 1543 814.262V864.528H686V814.262Z" fill="#287FFF"/>
<circle cx="1509.46" cy="832.003" r="11.8272" fill="#EFEFF0"/>
<circle cx="1471.03" cy="832.003" r="11.8272" fill="#EFEFF0"/>
<circle cx="1432.59" cy="832.003" r="11.8272" fill="#EFEFF0"/>
</g>
<path d="M510 770C518.837 770 526 762.389 526 753C526 743.611 518.837 736 510 736" stroke="#263238" stroke-width="5"/>
<path d="M686 1060C677.163 1060 670 1067.61 670 1077C670 1086.39 677.163 1094 686 1094" stroke="#263238" stroke-width="5"/>
<path d="M526.5 753C649 753 516 1077.5 669 1077.5" stroke="#263238" stroke-width="5" stroke-linecap="round"/>
<rect x="173.5" y="602.5" width="335" height="301" rx="12.5" fill="white"/>
<g clip-path="url(#clip4_1589_2304)">
<path d="M220 731.46C220 731.46 225.05 739.293 237.131 737.405C249.213 735.518 284.295 724 284.295 724L352.897 740.842C352.897 740.842 321.171 752.711 308.774 768.214C296.378 783.718 363.965 777.488 398.111 746.107L380.571 787.226L398.111 831.271" stroke="#313D6B" stroke-width="7" stroke-linecap="round" stroke-linejoin="round"/>
<path d="M329.582 709.363C329.582 709.363 336.273 716.281 339.75 717.19C343.226 718.098 356.282 713.26 356.282 713.26L370.119 731.422C370.119 731.422 383.762 722.843 388.829 720.585C393.896 718.328 395.495 703.344 398.71 702.456C401.925 701.567 420.012 715.209 420.012 715.209L418.452 731.422L412.416 736.609L430.146 756.137L447.171 754.703" stroke="#313D6B" stroke-width="7" stroke-linecap="round" stroke-linejoin="round"/>
<path d="M428.957 702.262L457.806 688.205" stroke="#287FFF" stroke-width="7" stroke-linecap="round" stroke-linejoin="round"/>
<path d="M427.919 658.191L414.242 693.432" stroke="#287FFF" stroke-width="7" stroke-linecap="round" stroke-linejoin="round"/>
<path d="M369.34 777.943C359.235 784.568 337.378 786.929 326.075 790.438C318.126 792.803 310.059 794.755 301.908 796.284L248.508 848.515" stroke="#313D6B" stroke-width="7" stroke-linecap="round" stroke-linejoin="round"/>
</g>
<rect x="173.5" y="602.5" width="335" height="301" rx="12.5" stroke="#263238" stroke-width="5"/>
<defs>
<clipPath id="clip0_1589_2304">
<rect width="857" height="562" fill="white" transform="translate(686 798)"/>
</clipPath>
<clipPath id="clip1_1589_2304">
<rect width="857" height="495.472" fill="white" transform="translate(686 864.528)"/>
</clipPath>
<clipPath id="clip2_1589_2304">
<rect width="795" height="460" fill="white" transform="translate(717 900)"/>
</clipPath>
<clipPath id="clip3_1589_2304">
<rect width="795" height="440" fill="white" transform="translate(717 921)"/>
</clipPath>
<clipPath id="clip4_1589_2304">
<rect width="245" height="200.706" fill="white" transform="translate(218 653)"/>
</clipPath>
</defs>
</svg>
