<svg width="657" height="657" viewBox="0 0 657 657" fill="none" xmlns="http://www.w3.org/2000/svg">
<g clip-path="url(#clip0_1710_5713)">
<path d="M443 289L234.122 430.586" stroke="#9D9D9D" stroke-width="1.44565" stroke-linecap="round"/>
<path d="M506 296L317.486 447.372" stroke="#9D9D9D" stroke-width="1.44565" stroke-linecap="round"/>
<path d="M443 289L506 296" stroke="#9D9D9D" stroke-width="1.44565" stroke-linecap="round"/>
<path d="M506 296L505.5 344.5" stroke="#9D9D9D" stroke-width="1.44565" stroke-linecap="round"/>
<path d="M505.5 344.5L320.86 513.389" stroke="#9D9D9D" stroke-width="1.44565" stroke-linecap="round"/>
<path d="M206.674 434.442L146.92 473.957" stroke="#9D9D9D" stroke-width="1.44565" stroke-linecap="round"/>
<path d="M317.508 447.453C278.716 473.957 205.47 486.486 146.92 473.957" stroke="#9D9D9D" stroke-width="1.44565" stroke-linecap="round"/>
<path d="M157.522 542.867L146.921 473.957" stroke="#9D9D9D" stroke-width="1.44565" stroke-linecap="round"/>
<path d="M157.522 542.867C217.999 557.564 286.908 542.867 320.881 513.472" stroke="#9D9D9D" stroke-width="1.44565" stroke-linecap="round"/>
<path d="M320.881 513.472L317.508 447.453" stroke="#9D9D9D" stroke-width="1.44565" stroke-linecap="round"/>
<path d="M234.142 430.587L317.508 447.453" stroke="#9D9D9D" stroke-width="1.44565" stroke-linecap="round"/>
<path d="M206.674 434.442C220.991 435.577 226.786 434.575 234.141 430.587" stroke="#9D9D9D" stroke-width="1.44565" stroke-linecap="round"/>
<path d="M206.674 434.443L-54.501 380" stroke="#9D9D9D" stroke-width="1.44565" stroke-linecap="round"/>
<path d="M738.653 544.312L494.82 494.196" stroke="#9D9D9D" stroke-width="1.44565" stroke-linecap="round"/>
<path d="M738.653 611.294L453.859 545.276" stroke="#9D9D9D" stroke-width="1.44565" stroke-linecap="round"/>
<path d="M741.063 695.624L451.932 620.45" stroke="#9D9D9D" stroke-width="1.44565" stroke-linecap="round"/>
<path d="M453.859 545.276L451.932 620.45" stroke="#9D9D9D" stroke-width="1.44565" stroke-linecap="round"/>
<path d="M494.82 494.196L453.86 545.276" stroke="#9D9D9D" stroke-width="1.44565" stroke-linecap="round"/>
<path d="M146.92 473.957L-68.0007 424.323" stroke="#9D9D9D" stroke-width="1.44565" stroke-linecap="round"/>
<path d="M157.522 542.867L-60.2899 485.522" stroke="#9D9D9D" stroke-width="1.44565" stroke-linecap="round"/>
<path d="M207.291 434.505L494.841 494.195" stroke="#297FFF" stroke-width="1.20471" stroke-linecap="round" stroke-linejoin="round" stroke-dasharray="2.89 4.82"/>
<path d="M234.141 430.587L317.015 447.37" stroke="#297FFF" stroke-width="1.20471" stroke-linecap="round" stroke-linejoin="round" stroke-dasharray="2.89 4.82"/>
<path d="M146.753 474.612L453.225 544.987" stroke="#297FFF" stroke-width="1.20471" stroke-linecap="round" stroke-linejoin="round" stroke-dasharray="2.89 4.82"/>
<path d="M146.753 474.612L157.347 542.717" stroke="#297FFF" stroke-width="1.20471" stroke-linecap="round" stroke-linejoin="round" stroke-dasharray="2.89 4.82"/>
<path d="M223.182 437.533L227.722 502.611" stroke="#297FFF" stroke-opacity="0.6" stroke-width="1.20471" stroke-linecap="round" stroke-linejoin="round" stroke-dasharray="2.89 4.82"/>
<path d="M207.291 434.505L211.831 498.07" stroke="#297FFF" stroke-opacity="0.6" stroke-width="1.20471" stroke-linecap="round" stroke-linejoin="round" stroke-dasharray="2.89 4.82"/>
<path d="M260.261 501.097L266.315 571.472" stroke="#297FFF" stroke-width="1.20471" stroke-linecap="round" stroke-linejoin="round" stroke-dasharray="2.89 4.82"/>
<path d="M314.745 456.451L260.261 500.341" stroke="#297FFF" stroke-width="1.20471" stroke-linecap="round" stroke-linejoin="round" stroke-dasharray="2.89 4.82"/>
<path d="M317.772 523.799L266.315 571.472" stroke="#297FFF" stroke-opacity="0.6" stroke-width="1.20471" stroke-linecap="round" stroke-linejoin="round" stroke-dasharray="2.89 4.82"/>
<path d="M491.818 565.418L451.712 619.902" stroke="#297FFF" stroke-width="1.20471" stroke-linecap="round" stroke-linejoin="round" stroke-dasharray="2.89 4.82"/>
<path d="M494.841 494.196L453.225 544.987" stroke="#297FFF" stroke-width="1.20471" stroke-linecap="round" stroke-linejoin="round" stroke-dasharray="2.89 4.82"/>
<path d="M207.291 434.505L146.753 474.612" stroke="#297FFF" stroke-width="1.20471" stroke-linecap="round" stroke-linejoin="round" stroke-dasharray="2.89 4.82"/>
<path d="M234.141 430.587L223.182 437.532" stroke="#297FFF" stroke-width="1.20471" stroke-linecap="round" stroke-linejoin="round" stroke-dasharray="2.89 4.82"/>
<path d="M317.016 447.37L307.178 454.937" stroke="#297FFF" stroke-width="1.20471" stroke-linecap="round" stroke-linejoin="round" stroke-dasharray="2.89 4.82"/>
<path d="M320.042 513.961L310.205 522.285" stroke="#297FFF" stroke-opacity="0.6" stroke-width="1.20471" stroke-linecap="round" stroke-linejoin="round" stroke-dasharray="2.89 4.82"/>
<path d="M317.016 447.37L320.043 513.961" stroke="#297FFF" stroke-opacity="0.6" stroke-width="1.20471" stroke-linecap="round" stroke-linejoin="round" stroke-dasharray="2.89 4.82"/>
<path d="M307.178 454.937L310.205 522.285" stroke="#297FFF" stroke-opacity="0.6" stroke-width="1.20471" stroke-linecap="round" stroke-linejoin="round" stroke-dasharray="2.89 4.82"/>
<path d="M314.745 456.451L317.772 523.799" stroke="#297FFF" stroke-opacity="0.6" stroke-width="1.20471" stroke-linecap="round" stroke-linejoin="round" stroke-dasharray="2.89 4.82"/>
<path d="M494.841 494.196L491.818 565.419" stroke="#297FFF" stroke-width="1.20471" stroke-linecap="round" stroke-linejoin="round" stroke-dasharray="2.89 4.82"/>
<path d="M453.226 544.987L451.712 619.902" stroke="#297FFF" stroke-width="1.20471" stroke-linecap="round" stroke-linejoin="round" stroke-dasharray="2.89 4.82"/>
<path d="M211.831 498.827L157.347 542.717" stroke="#297FFF" stroke-opacity="0.6" stroke-width="1.20471" stroke-linecap="round" stroke-linejoin="round" stroke-dasharray="2.89 4.82"/>
<path d="M157.347 542.717L451.712 619.902" stroke="#297FFF" stroke-width="1.20471" stroke-linecap="round" stroke-linejoin="round" stroke-dasharray="2.89 4.82"/>
<path d="M211.831 498.827L491.818 565.419" stroke="#297FFF" stroke-opacity="0.6" stroke-width="1.20471" stroke-linecap="round" stroke-linejoin="round" stroke-dasharray="2.89 4.82"/>
<path opacity="0.2" d="M146.92 474.438L207.397 434.442L222.817 437.574L234.142 430.587L317.026 447.453L317.508 457.091L494.6 494.196L453.64 545.516L451.953 620.209L157.522 542.625L146.92 474.438Z" fill="#287FFF"/>
<path d="M473.556 557.222L473.364 461.629" stroke="#263238" stroke-width="1.24687" stroke-linecap="round"/>
<path d="M475.634 458.304L471.894 458.304" stroke="#263238" stroke-width="0.831244" stroke-linecap="round"/>
<path d="M475.634 454.147L472.309 454.147" stroke="#263238" stroke-width="0.831244" stroke-linecap="round"/>
<path d="M475.634 454.147L471.894 458.304" stroke="#263238" stroke-width="0.831244" stroke-linecap="round"/>
<path d="M421.603 625.384L417.862 629.54" stroke="#263238" stroke-width="0.831244" stroke-linecap="round"/>
<path d="M417.862 625.384L421.603 629.54" stroke="#263238" stroke-width="0.831244" stroke-linecap="round"/>
<path d="M570.396 578.419L566.655 582.575" stroke="#263238" stroke-width="0.831244" stroke-linecap="round"/>
<path d="M566.655 578.419L568.318 580.497" stroke="#263238" stroke-width="0.831244" stroke-linecap="round"/>
<path d="M453.19 552.234L249.12 504.438" stroke="#263238" stroke-width="1.24687" stroke-linecap="round"/>
<path d="M249.12 504.438L228.755 499.866" stroke="#263238" stroke-width="1.24687" stroke-linecap="round" stroke-linejoin="round" stroke-dasharray="2.49 2.49"/>
<path d="M473.556 557.222L453.19 552.234" stroke="#263238" stroke-width="1.24687" stroke-linecap="round" stroke-linejoin="round" stroke-dasharray="2.49 2.49"/>
<path d="M473.556 557.222L563.33 579.042" stroke="#263238" stroke-width="1.24687" stroke-linecap="round"/>
<path d="M473.556 557.222L422.508 623.277" stroke="#263238" stroke-width="1.24687" stroke-linecap="round"/>
<g clip-path="url(#clip1_1710_5713)">
<path d="M228.378 499.437L229.749 495.665C229.749 495.665 236.179 489.236 237.464 487.95C238.065 487.35 240.465 489.751 239.865 490.351C238.065 492.151 232.15 498.066 232.15 498.066L228.378 499.437Z" stroke="#263238" stroke-width="0.85722" stroke-miterlimit="10" stroke-linecap="round" stroke-linejoin="round"/>
<path d="M238.542 491.71L236.117 489.285L230.056 495.347L232.48 497.771L238.542 491.71Z" stroke="#263238" stroke-width="0.85722" stroke-miterlimit="10" stroke-linecap="round" stroke-linejoin="round"/>
</g>
</g>
<defs>
<clipPath id="clip0_1710_5713">
<rect width="657" height="657" fill="white"/>
</clipPath>
<clipPath id="clip1_1710_5713">
<rect width="27.431" height="27.431" fill="white" transform="translate(227.092 486.15)"/>
</clipPath>
</defs>
</svg>
