<svg width="2010" height="1453" viewBox="0 0 2010 1453" fill="none" xmlns="http://www.w3.org/2000/svg">
<path d="M-249.047 416.582L512.103 576.399C555.541 578.547 575.073 575.424 600.083 561.87L1369.3 41.2535L1498.46 -45.6406L1764.81 41.2535C1764.81 41.2535 1018.19 733.794 892.274 839.532C766.357 945.269 528.246 985.627 345.828 938.005C163.411 890.383 -270.84 778.188 -270.84 778.188L-249.047 416.582Z" fill="white"/>
<path d="M1337.02 946.883L1475.04 775.765L2304.8 946.883L2258.79 1439.25L1329.75 1199.52L1337.02 946.883Z" fill="white"/>
<path d="M1418.54 7.35229L600.894 562.674" stroke="#9D9D9D" stroke-width="4.84294" stroke-linecap="round"/>
<path d="M1596.92 44.4817L880.165 618.903" stroke="#9D9D9D" stroke-width="4.84294" stroke-linecap="round"/>
<path d="M1750.28 55.7819L891.468 840.064" stroke="#9D9D9D" stroke-width="4.84294" stroke-linecap="round"/>
<path d="M508.877 575.592L308.702 707.966" stroke="#9D9D9D" stroke-width="4.84294" stroke-linecap="round"/>
<path d="M880.169 619.179C750.217 707.966 504.842 749.938 308.702 707.966" stroke="#9D9D9D" stroke-width="4.84294" stroke-linecap="round"/>
<path d="M344.217 938.812L308.702 707.965" stroke="#9D9D9D" stroke-width="4.84294" stroke-linecap="round"/>
<path d="M344.217 938.812C546.814 988.049 777.661 938.812 891.47 840.339" stroke="#9D9D9D" stroke-width="4.84294" stroke-linecap="round"/>
<path d="M891.47 840.339L880.17 619.178" stroke="#9D9D9D" stroke-width="4.84294" stroke-linecap="round"/>
<path d="M600.893 562.677L880.169 619.178" stroke="#9D9D9D" stroke-width="4.84294" stroke-linecap="round"/>
<path d="M508.877 575.592C556.84 579.393 576.253 576.035 600.893 562.678" stroke="#9D9D9D" stroke-width="4.84294" stroke-linecap="round"/>
<path d="M508.877 575.592L-259.536 414.161" stroke="#9D9D9D" stroke-width="4.84294" stroke-linecap="round"/>
<path d="M2291.08 943.656L1474.23 775.767" stroke="#9D9D9D" stroke-width="4.84294" stroke-linecap="round"/>
<path d="M2291.08 1168.05L1337.02 946.884" stroke="#9D9D9D" stroke-width="4.84294" stroke-linecap="round"/>
<path d="M2299.15 1450.55L1330.56 1198.72" stroke="#9D9D9D" stroke-width="4.84294" stroke-linecap="round"/>
<path d="M1337.02 946.884L1330.56 1198.72" stroke="#9D9D9D" stroke-width="4.84294" stroke-linecap="round"/>
<path d="M1474.23 775.766L1337.02 946.884" stroke="#9D9D9D" stroke-width="4.84294" stroke-linecap="round"/>
<path d="M308.702 707.966L-411.282 541.691" stroke="#9D9D9D" stroke-width="4.84294" stroke-linecap="round"/>
<path d="M344.217 938.812L-385.453 746.709" stroke="#9D9D9D" stroke-width="4.84294" stroke-linecap="round"/>
<path d="M510.941 575.804L1474.23 775.766" stroke="#297FFF" stroke-width="4.03579" stroke-linecap="round" stroke-linejoin="round" stroke-dasharray="9.69 16.14"/>
<path d="M600.891 562.676L878.519 618.899" stroke="#297FFF" stroke-width="4.03579" stroke-linecap="round" stroke-linejoin="round" stroke-dasharray="9.69 16.14"/>
<path d="M308.139 710.16L1334.82 945.917" stroke="#297FFF" stroke-width="4.03579" stroke-linecap="round" stroke-linejoin="round" stroke-dasharray="9.69 16.14"/>
<path d="M308.139 710.16L343.63 938.312" stroke="#297FFF" stroke-width="4.03579" stroke-linecap="round" stroke-linejoin="round" stroke-dasharray="9.69 16.14"/>
<path d="M564.176 585.945L579.386 803.956" stroke="#297FFF" stroke-opacity="0.6" stroke-width="4.03579" stroke-linecap="round" stroke-linejoin="round" stroke-dasharray="9.69 16.14"/>
<path d="M510.941 575.804L526.151 788.745" stroke="#297FFF" stroke-opacity="0.6" stroke-width="4.03579" stroke-linecap="round" stroke-linejoin="round" stroke-dasharray="9.69 16.14"/>
<path d="M688.393 798.886L708.673 1034.64" stroke="#297FFF" stroke-width="4.03579" stroke-linecap="round" stroke-linejoin="round" stroke-dasharray="9.69 16.14"/>
<path d="M870.914 649.32L688.393 796.351" stroke="#297FFF" stroke-width="4.03579" stroke-linecap="round" stroke-linejoin="round" stroke-dasharray="9.69 16.14"/>
<path d="M881.054 874.936L708.673 1034.64" stroke="#297FFF" stroke-opacity="0.6" stroke-width="4.03579" stroke-linecap="round" stroke-linejoin="round" stroke-dasharray="9.69 16.14"/>
<path d="M1464.11 1014.36L1329.75 1196.88" stroke="#297FFF" stroke-width="4.03579" stroke-linecap="round" stroke-linejoin="round" stroke-dasharray="9.69 16.14"/>
<path d="M1474.23 775.766L1334.82 945.916" stroke="#297FFF" stroke-width="4.03579" stroke-linecap="round" stroke-linejoin="round" stroke-dasharray="9.69 16.14"/>
<path d="M510.941 575.804L308.14 710.16" stroke="#297FFF" stroke-width="4.03579" stroke-linecap="round" stroke-linejoin="round" stroke-dasharray="9.69 16.14"/>
<path d="M600.891 562.676L564.177 585.944" stroke="#297FFF" stroke-width="4.03579" stroke-linecap="round" stroke-linejoin="round" stroke-dasharray="9.69 16.14"/>
<path d="M878.52 618.899L845.564 644.25" stroke="#297FFF" stroke-width="4.03579" stroke-linecap="round" stroke-linejoin="round" stroke-dasharray="9.69 16.14"/>
<path d="M888.66 841.981L855.704 869.866" stroke="#297FFF" stroke-opacity="0.6" stroke-width="4.03579" stroke-linecap="round" stroke-linejoin="round" stroke-dasharray="9.69 16.14"/>
<path d="M878.52 618.899L888.66 841.981" stroke="#297FFF" stroke-opacity="0.6" stroke-width="4.03579" stroke-linecap="round" stroke-linejoin="round" stroke-dasharray="9.69 16.14"/>
<path d="M845.564 644.249L855.704 869.866" stroke="#297FFF" stroke-opacity="0.6" stroke-width="4.03579" stroke-linecap="round" stroke-linejoin="round" stroke-dasharray="9.69 16.14"/>
<path d="M870.914 649.32L881.054 874.936" stroke="#297FFF" stroke-opacity="0.6" stroke-width="4.03579" stroke-linecap="round" stroke-linejoin="round" stroke-dasharray="9.69 16.14"/>
<path d="M1474.23 775.766L1464.11 1014.36" stroke="#297FFF" stroke-width="4.03579" stroke-linecap="round" stroke-linejoin="round" stroke-dasharray="9.69 16.14"/>
<path d="M1334.82 945.917L1329.75 1196.88" stroke="#297FFF" stroke-width="4.03579" stroke-linecap="round" stroke-linejoin="round" stroke-dasharray="9.69 16.14"/>
<path d="M526.151 791.28L343.63 938.311" stroke="#297FFF" stroke-opacity="0.6" stroke-width="4.03579" stroke-linecap="round" stroke-linejoin="round" stroke-dasharray="9.69 16.14"/>
<path d="M343.628 938.312L1329.75 1196.88" stroke="#297FFF" stroke-width="4.03579" stroke-linecap="round" stroke-linejoin="round" stroke-dasharray="9.69 16.14"/>
<path d="M526.151 791.28L1464.11 1014.36" stroke="#297FFF" stroke-opacity="0.6" stroke-width="4.03579" stroke-linecap="round" stroke-linejoin="round" stroke-dasharray="9.69 16.14"/>
<path opacity="0.2" d="M308.701 709.579L511.297 575.591L562.955 586.084L600.892 562.677L878.554 619.178L880.168 651.464L1473.43 775.766L1336.21 947.69L1330.56 1197.91L344.216 938.005L308.701 709.579Z" fill="#287FFF"/>
<path d="M1402.93 986.903L1402.29 666.667" stroke="#263238" stroke-width="4.177" stroke-linecap="round"/>
<path d="M1409.89 655.528L1397.36 655.528" stroke="#263238" stroke-width="2.78467" stroke-linecap="round"/>
<path d="M1409.89 641.604L1398.75 641.604" stroke="#263238" stroke-width="2.78467" stroke-linecap="round"/>
<path d="M1409.89 641.604L1397.36 655.528" stroke="#263238" stroke-width="2.78467" stroke-linecap="round"/>
<path d="M1228.89 1215.25L1216.36 1229.17" stroke="#263238" stroke-width="2.78467" stroke-linecap="round"/>
<path d="M1216.36 1215.25L1228.89 1229.17" stroke="#263238" stroke-width="2.78467" stroke-linecap="round"/>
<path d="M1727.34 1057.91L1714.81 1071.83" stroke="#263238" stroke-width="2.78467" stroke-linecap="round"/>
<path d="M1714.81 1057.91L1720.38 1064.87" stroke="#263238" stroke-width="2.78467" stroke-linecap="round"/>
<path d="M1334.71 970.195L651.07 810.076" stroke="#263238" stroke-width="4.177" stroke-linecap="round"/>
<path d="M651.07 810.077L582.846 794.761" stroke="#263238" stroke-width="4.177" stroke-linecap="round" stroke-linejoin="round" stroke-dasharray="8.35 8.35"/>
<path d="M1402.93 986.903L1334.71 970.195" stroke="#263238" stroke-width="4.177" stroke-linecap="round" stroke-linejoin="round" stroke-dasharray="8.35 8.35"/>
<path d="M1402.93 986.903L1703.67 1060" stroke="#263238" stroke-width="4.177" stroke-linecap="round"/>
<path d="M1402.93 986.903L1231.92 1208.19" stroke="#263238" stroke-width="4.177" stroke-linecap="round"/>
<path d="M581.584 793.324L586.179 780.689C586.179 780.689 607.716 759.151 612.024 754.844C614.034 752.833 622.075 760.874 620.065 762.884C614.034 768.915 594.219 788.729 594.219 788.729L581.584 793.324Z" fill="white" stroke="#263238" stroke-width="2.87169" stroke-miterlimit="10" stroke-linecap="round" stroke-linejoin="round"/>
<path d="M615.633 767.439L607.511 759.317L587.205 779.622L595.327 787.745L615.633 767.439Z" stroke="#263238" stroke-width="2.87169" stroke-miterlimit="10" stroke-linecap="round" stroke-linejoin="round"/>
</svg>
