<svg width="2000" height="2000" viewBox="0 0 2000 2000" fill="none" xmlns="http://www.w3.org/2000/svg">
<path d="M244 1593.5L297 1562.5L812.5 1718.5L1314.5 1562L1368 1595L805.5 1895.5L244 1593.5Z" fill="#D9D9D9" stroke="#B1B1B5" stroke-width="2" stroke-linecap="round" stroke-linejoin="round"/>
<path d="M551 1260.5L297.5 1395.5L483 1495L551 1459V1260.5Z" fill="white"/>
<path d="M297 1592.5V1395.5L805.5 1668V1865L297 1592.5Z" fill="#E0E0E1"/>
<path d="M1057.5 1530L551 1260L297.5 1395.5L805.5 1668L1057.5 1530Z" fill="#7EB2FF"/>
<path d="M579.5 1275V1245L835.5 1382V1411L579.5 1275Z" fill="#E0E0E1"/>
<path d="M1088 1274.5L861.5 1395.5L1046.5 1495L1088 1473V1274.5Z" fill="white"/>
<path d="M1057.5 1291L1057 1260.5L835.5 1382.5L835 1411L861 1424.5L861.5 1395.5L1057.5 1291Z" fill="white"/>
<path d="M873 1362L805.5 1323.5L806 1125L1057 1261L873 1362Z" fill="#E0E0E1"/>
<path d="M1127 1495.5L1088 1473.24V1275L1314 1395.5L1127 1495.5Z" fill="#E0E0E1"/>
<path d="M1314 1395.5L1088 1274.5L862.5 1395.5L1088 1517L1314 1395.5Z" fill="#287FFF"/>
<path d="M1057.5 1530L805.5 1668V1865L1057.5 1730V1530Z" fill="white"/>
<path d="M1088 1517L861.5 1396V1425L1058 1530L1057.5 1696.5L1088 1714V1517Z" fill="#E0E0E1"/>
<path d="M805.5 1125L580 1244.5L766 1345L805.5 1323.5V1125Z" fill="white"/>
<path d="M1314 1396L1088.5 1517V1714L1314.5 1593L1314 1396Z" fill="white"/>
<path d="M297 1395.5V1592.5L805.5 1865.5M297 1395.5L551 1260M297 1395.5L482.672 1495M805.5 1865.5L1057.5 1730L1058 1529.5M805.5 1865.5V1668M1058 1529.5L873.5 1630.7M1058 1529.5L836 1411.49L833.189 1410M551 1260V1459M551 1260L805.5 1395.28M805.5 1668L482.672 1495M805.5 1668L873.5 1630.7M551 1459L482.672 1495M551 1459L805.5 1594.5M873.5 1630.7L836 1610.74L833.189 1609.24M805.5 1395.28V1594.5M805.5 1395.28L833.189 1410M805.5 1594.5L833.189 1609.24M833.189 1410V1609.24" stroke="#727677" stroke-width="3" stroke-linejoin="round"/>
<path d="M1058 1697L1088 1714.5M1088 1714.5L1314.5 1593.5V1395.5M1088 1714.5V1517M1314.5 1395.5L1156 1479.7L1127 1495.61M1314.5 1395.5L1088 1274.5M1088 1517L1047 1495.03M1088 1517L1127 1495.61M1088 1274.5V1473M1088 1274.5L861.273 1395.5M1088 1473L1047 1495.03M1088 1473L1127 1495.61M861.273 1395.5V1425M861.273 1395.5L1047 1495.03" stroke="#727677" stroke-width="3" stroke-linejoin="round"/>
<path d="M579.5 1275V1244.5M579.5 1244.5L805.5 1125M579.5 1244.5L766 1345.04M835.5 1382.5V1411M835.5 1382.5L766 1345.04M835.5 1382.5L873 1361.89M1057.5 1260.5V1290M1057.5 1260.5L805.5 1125M1057.5 1260.5L873 1361.89M805.5 1125V1323.5M805.5 1323.5L766 1345.04M805.5 1323.5L873 1361.89" stroke="#727677" stroke-width="3" stroke-linejoin="round"/>
<path opacity="0.9" d="M1747.98 1191H1275.07C1271.19 1191 1268.05 1194.05 1268.05 1197.81L1268.05 1374.99C1259.63 1393.46 1247 1386.9 1247 1395.43C1247 1403.95 1259.63 1396.74 1268.05 1415.87L1268.05 1661.19C1268.05 1664.95 1271.19 1668 1275.07 1668H1747.98C1751.86 1668 1755 1664.95 1755 1661.19V1197.81C1755 1194.05 1751.86 1191 1747.98 1191Z" fill="#F1F1F1" stroke="#7FACEE" stroke-width="15"/>
<rect x="1295" y="1220" width="272" height="37" rx="18.5" fill="#B4B4B4"/>
<rect x="1295" y="1282" width="432" height="355" rx="10" fill="white"/>
<line x1="1295" y1="1398.5" x2="1727" y2="1398.5" stroke="#BFBFBF"/>
<line x1="1295" y1="1514.5" x2="1727" y2="1514.5" stroke="#BFBFBF"/>
<rect x="1314" y="1303" width="180" height="31" rx="15.5" fill="#D7D7D7"/>
<rect x="1314" y="1420" width="180" height="31" rx="15.5" fill="#D7D7D7"/>
<rect x="1314" y="1536" width="180" height="31" rx="15.5" fill="#D7D7D7"/>
<rect x="1314" y="1347" width="253" height="31" rx="15.5" fill="#D7D7D7"/>
<rect x="1314" y="1463" width="253" height="31" rx="15.5" fill="#D7D7D7"/>
<rect x="1314" y="1580" width="253" height="30" rx="15" fill="#D7D7D7"/>
</svg>
