<svg width="1728" height="1117" viewBox="0 0 1728 1117" fill="none" xmlns="http://www.w3.org/2000/svg">
<g clip-path="url(#clip0_1599_2874)">
<path d="M782.5 566.5C782.5 634.35 763.347 714.876 721.385 778.423C679.434 841.954 614.703 888.5 523.5 888.5C432.25 888.5 331.733 841.909 254.014 778.311C215.16 746.517 182.024 710.489 158.604 673.938C135.182 637.381 121.5 600.336 121.5 566.5C121.5 498.83 169.865 441.089 241.196 400.236C312.512 359.391 406.675 335.5 498 335.5C589.32 335.5 660.444 359.388 708.73 400.184C757.007 440.973 782.5 498.703 782.5 566.5Z" stroke="#F1D181"/>
<path d="M2764.5 80.4929C2764.5 309.571 2703.46 472.535 2582.98 578.243C2462.49 683.964 2282.45 732.5 2044.27 732.5C1806.1 732.5 1568.88 683.965 1391.22 578.19C1213.58 472.427 1095.5 309.449 1095.5 80.4929C1095.5 -45.1868 1187.16 -177.177 1343.37 -277.775C1499.56 -378.361 1720.2 -447.5 1977.95 -447.5C2306.5 -447.5 2503.12 -366.111 2617.6 -259.46C2732.09 -152.812 2764.5 -20.8349 2764.5 80.4929Z" stroke="#F1D181"/>
<path d="M398.5 642.906C398.5 700.464 412.502 741.33 440.061 767.816C467.623 794.305 508.84 806.5 563.473 806.5C618.088 806.5 660.574 792.275 689.408 763.742C718.24 735.211 733.5 692.296 733.5 634.75C733.5 603.177 724.302 572.135 700.4 548.984C676.496 525.831 637.815 510.5 578.702 510.5C503.34 510.5 458.311 530.947 432.12 557.672C405.924 584.403 398.5 617.488 398.5 642.906Z" stroke="#F1D181"/>
<path d="M1279.5 -102.885C1279.5 -208.552 1307.65 -283.669 1363.17 -332.382C1418.71 -381.107 1501.71 -403.5 1611.6 -403.5C1721.48 -403.5 1830.9 -381.108 1912.83 -332.328C1994.74 -283.56 2049.16 -208.431 2049.16 -102.885C2049.16 -45.0183 2006.95 15.8196 1934.9 62.2193C1862.87 108.606 1761.1 140.5 1642.21 140.5C1490.63 140.5 1399.97 102.952 1347.2 53.797C1294.44 4.64424 1279.5 -56.1805 1279.5 -102.885Z" stroke="#F1D181"/>
</g>
<defs>
<clipPath id="clip0_1599_2874">
<rect width="1728" height="1117" fill="white"/>
</clipPath>
</defs>
</svg>
