<svg width="55" height="52" viewBox="0 0 55 52" fill="none" xmlns="http://www.w3.org/2000/svg">
<path fill-rule="evenodd" clip-rule="evenodd" d="M12.9675 51.8276V17.3974H1.52355V51.8276H12.9675ZM7.24548 12.6965C11.2362 12.6965 13.7201 10.0527 13.7201 6.74862C13.6458 3.37019 11.2362 0.799689 7.32119 0.799689C3.40655 0.799689 0.847046 3.37019 0.847046 6.74862C0.847046 10.0527 3.33042 12.6965 7.17089 12.6965H7.24548Z" fill="white"/>
<path fill-rule="evenodd" clip-rule="evenodd" d="M19.2998 51.8276H30.7437V32.6003C30.7437 31.5713 30.818 30.5433 31.1202 29.8077C31.9475 27.7517 33.8305 25.6224 36.9919 25.6224C41.133 25.6224 42.7895 28.7797 42.7895 33.4083V51.8276H54.2324V32.0858C54.2324 21.5104 48.5866 16.5895 41.0574 16.5895C34.8837 16.5895 32.1734 20.0402 30.6676 22.3907H30.744V17.3974H19.3001C19.4503 20.6281 19.2998 51.8276 19.2998 51.8276Z" fill="white"/>
</svg>
