<svg width="380" height="500" viewBox="0 0 380 500" fill="none" xmlns="http://www.w3.org/2000/svg">
<rect x="113" y="276" width="235" height="172" fill="#EAEDF1"/>
<path d="M380 500H0V319H121V482H365V319H380V500Z" fill="white"/>
<path fill-rule="evenodd" clip-rule="evenodd" d="M121 319H246V439H121V436H126V323H121V319ZM131 323H183V436H131V323ZM241 323H188V436H241V323Z" fill="#313131"/>
<path d="M365 482V319L349 319V458.5L365 482Z" fill="#E7E7E8"/>
<rect x="336" y="319" width="12" height="120" fill="white"/>
<rect x="246" y="319" width="37" height="120" fill="white"/>
<path d="M121 482V439H348L349 440V459L365 482H121Z" fill="#DADADB"/>
<path fill-rule="evenodd" clip-rule="evenodd" d="M336 319H283V439H336V319ZM287 320H332V435H287V320Z" fill="#313131"/>
<path d="M380 112V319H0V10L380 112Z" fill="#7AAEFB"/>
<path d="M45 301V119H235V301H45Z" fill="#313131"/>
<rect x="50" y="124" width="54" height="172" fill="#EAEDF1"/>
<rect x="113" y="124" width="54" height="172" fill="#EAEDF1"/>
<rect x="176" y="124" width="55" height="172" fill="#EAEDF1"/>
<rect x="302" y="153" width="63" height="148" fill="#313131"/>
<rect x="306" y="157" width="55" height="139" fill="#EAEDF1"/>
<path d="M121 482V319H365V482H121Z" stroke="#B1B1B5" stroke-width="2"/>
<path d="M121 439H348L349 440" stroke="#B1B1B5" stroke-width="2"/>
<path d="M365 482L349 459V319" stroke="#B1B1B5" stroke-width="2"/>
<path d="M379 112.767V499H1V11.3038L379 112.767Z" stroke="#B1B1B5" stroke-width="2"/>
</svg>
